<svg width="378" height="309" viewBox="0 0 378 309" fill="none" xmlns="http://www.w3.org/2000/svg">
<ellipse cx="183" cy="303.5" rx="181" ry="5.5" fill="#BFBFBF"/>
<path d="M348.139 111.533C401.226 176.055 372.099 247.171 348.139 257.532C298.811 287.203 297.402 223.623 181.363 262.713C88.532 293.985 26.8013 201.016 7.53979 150.623C-2.32587 123.464 -10.3123 60.9508 36.6669 28.1715C83.6462 -4.60776 95.7042 27.0726 95.8608 47.0102C70.6799 169.461 145.659 169.932 191.698 125.191C218.477 79.9778 295.053 47.0103 348.139 111.533Z" fill="#87DBFF"/>
<path d="M249.658 23.6226L251.874 32.1694C238.705 43.5653 235.202 41.7715 235.096 39.4501L231.931 33.4356C226.866 34.7018 223.278 33.5412 222.118 32.8025C219.585 31.2198 220.218 26.3849 221.801 25.0754C223.321 23.7053 223.489 21.2146 223.384 20.1405C222.434 20.457 221.801 19.5074 221.801 19.1908C220.629 15.6455 225.111 9.0612 227.499 6.21224L232.88 3.36328L237.629 3.99638L243.643 15.3922L249.658 23.6226Z" fill="#E1A185"/>
<path d="M273.715 297.123H283.845L286.694 305.353C285.111 306.936 269.501 306.936 269.6 305.353C269.7 303.77 272.238 299.128 273.715 297.123Z" fill="black"/>
<path d="M237.629 303.77C237.796 300.207 237.603 298.396 236.679 295.54H226.866C222.199 298.056 219.737 299.667 215.787 303.137C214.627 304.254 214.674 304.945 215.787 306.303L237.629 303.77Z" fill="black"/>
<path d="M344.013 179.32L332.863 144.831C332.188 142.744 329.958 141.59 327.865 142.244L270.608 160.119C268.485 160.782 267.31 163.05 267.994 165.167L279.145 199.656C279.82 201.743 282.049 202.898 284.143 202.244L341.399 184.369C343.523 183.706 344.698 181.437 344.013 179.32Z" fill="#693214"/>
<path d="M306.32 176.201L336.23 164.876C337.736 164.306 338.523 162.649 338.014 161.121L332.569 144.787C331.88 142.719 329.662 141.584 327.581 142.234L265.485 161.639L272.449 183.481L306.32 176.201Z" fill="#743B0B"/>
<path d="M305.379 178.548L311.104 176.368C313.177 175.578 314.208 173.25 313.4 171.184C312.626 169.205 310.437 168.18 308.421 168.852L302.609 170.79C300.478 171.5 299.35 173.826 300.111 175.939L300.192 176.165C300.95 178.271 303.288 179.345 305.379 178.548Z" fill="#7E4615"/>
<path d="M309.486 149.293L308.525 145.609C307.996 143.581 305.993 142.301 303.945 142.745C299.668 143.673 294.301 145.06 291.37 146.491C290.133 147.095 289.777 148.513 290.163 149.835L291.759 155.308" stroke="#743B0B" stroke-width="3"/>
<path d="M158.174 110.991H161.023L163.872 116.689L161.973 117.639C162.226 119.411 161.234 119.854 160.707 119.854L159.441 117.639C157.415 114.346 154.165 113.523 152.793 113.523L151.21 117.322C150.999 117.744 150.324 118.208 149.311 116.689C148.298 115.169 149.733 112.257 150.577 110.991C151.316 110.674 153.11 109.978 154.376 109.725C155.642 109.471 157.436 110.463 158.174 110.991Z" fill="#EAAD91"/>
<path d="M151.843 125.236C152.856 125.996 157.541 121.965 160.074 119.854C161.656 114.79 155.642 115.423 153.426 112.574C148.361 114.093 146.779 117.744 146.145 119.854L151.843 125.236Z" fill="#D18461"/>
<path d="M145.829 111.624L143.613 118.905C146.356 121.015 152.033 125.236 152.793 125.236C153.553 125.236 153.743 124.181 153.743 123.653C156.022 124.16 156.592 123.442 156.592 123.02C158.618 123.526 159.124 122.387 159.124 121.754C160.897 121.247 161.129 119.854 161.023 119.221L152.793 110.358L145.829 111.624Z" fill="#E29F7F"/>
<path d="M153.426 123.336L151.843 125.236C148.551 124.729 146.462 121.648 145.829 120.171L148.045 118.271C151.843 119.284 153.215 122.07 153.426 123.336Z" fill="#EAAD91"/>
<path d="M303.155 145.179C304.029 139.931 300.411 138.003 298.09 137.898C297.246 137.898 295.114 138.215 293.342 139.481C291.126 141.063 290.493 143.912 291.126 145.495C291.269 145.853 292.664 145.421 293.88 144.961C294.44 144.749 295.111 145.08 294.942 145.655C294.911 145.76 294.871 145.861 294.822 145.957C294.407 146.778 294.28 148.083 295.178 148.284C298.38 149.001 302.585 148.594 303.155 145.179Z" fill="#E6AF9A"/>
<path d="M262.636 142.963L237.312 295.857H226.233L227.499 136.315L262.636 142.963Z" fill="#0C314B"/>
<path d="M266.435 273.065C252 212.794 244.382 158.896 242.377 139.48H285.744L284.162 297.123H273.082L266.435 273.065Z" fill="#183A53"/>
<path d="M233.83 39.134C235.349 38.6275 236.784 39.345 237.312 39.7671C236.996 40.4002 236.965 41.0333 236.965 41.0333C240.319 37.1119 247.663 33.0375 251.557 31.2202L253.773 47.9974V105.293L258.521 144.229C237.755 143.723 229.609 139.586 228.132 137.581L228.765 80.6022L233.83 39.134Z" fill="#D7E4F5"/>
<path d="M240.478 15.0758C243.517 22.9263 247.864 24.0448 249.658 23.6227C247.379 16.0254 246.176 8.21722 245.859 5.26277C243.538 3.78553 237.122 0.831055 230.032 0.831055C222.941 0.831055 221.59 2.9414 221.801 3.99657C221.801 6.02249 224.545 6.74001 225.916 6.84553C230.221 6.33905 233.83 5.15725 235.096 4.62967C235.518 4.73519 236.299 5.13615 236.046 5.89587C235.793 6.6556 234.463 8.5338 233.83 9.37794C232.311 12.4168 232.986 16.131 233.514 17.6083C234.527 19.6342 236.046 17.1862 236.679 15.7089C238.452 12.9233 239.95 14.1262 240.478 15.0758Z" fill="#0B2F51"/>
<path d="M292.075 81.2352L302.205 138.531C297.9 140.05 293.025 140.641 291.126 140.747L284.162 115.739L287.327 143.596C270.613 147.648 259.049 148.027 255.356 147.711C251.557 133.15 249.658 96.1131 249.341 78.0696C249.088 63.6349 250.924 41.0332 251.873 31.5366C255.419 31.5366 261.159 34.069 263.586 35.3352C268.144 37.3612 274.138 43.1435 276.564 45.7814C285.301 55.278 290.493 72.7938 292.075 81.2352Z" fill="#183A53"/>
<path d="M228.765 99.9118C229.272 72.3085 232.88 47.5753 234.78 38.8174C228.702 38.8174 222.645 58.9711 220.218 68.2566C216.661 81.8683 212.621 87.0387 210.089 89.4656C199.959 99.0887 173.158 107.615 161.023 110.675L162.29 117.639C166.616 117.955 179.51 117.765 196.477 114.473C213.444 111.181 222.751 107.615 225.283 106.243L221.168 140.747L230.348 142.963C229.609 140.114 228.259 127.515 228.765 99.9118Z" fill="#183A53"/>
<path d="M225.283 106.559C225.283 89.0855 229.082 60.8702 230.981 48.9468C230.243 52.7454 228.259 63.065 226.233 73.9543C224.207 84.8437 223.701 99.3839 223.701 105.293L221.168 108.142L225.283 106.559Z" fill="#0C314B"/>
<path d="M240.161 109.092L239.211 49.2634C240.161 48.3139 240.604 46.7311 240.478 45.4648C240.161 42.9324 238.578 42.7516 237.312 42.9324C235.539 43.1857 235.729 44.8317 235.729 46.0979C235.729 47.3641 236.257 48.8414 236.679 49.2634C233.893 57.1139 231.93 91.1537 231.297 107.192C231.551 113.017 233.935 115.317 235.096 115.739C238.641 116.499 239.95 111.624 240.161 109.092Z" fill="#E83D43"/>
<path d="M281.313 141.696C283.085 124.982 269.389 76.4867 262.32 54.3281L283.845 115.739C284.906 119.381 285.794 128.503 287.327 143.596C280.339 145.709 273.626 146.188 260.104 147.394L281.313 141.696Z" fill="#0C314B"/>
<path d="M102.026 296.32C104.24 297.96 107.917 300.645 110.581 302.489C111.41 303.063 111.028 304.62 110.023 304.696C103.892 305.159 99.3821 305.189 92.1188 304.477C91.6816 304.434 91.3219 304.109 91.2453 303.677C90.6911 300.545 90.8069 298.538 91.2342 295.578C91.313 295.032 91.8233 294.657 92.3686 294.74L101.582 296.136C101.744 296.16 101.894 296.222 102.026 296.32Z" fill="black"/>
<path d="M67.246 304.069C66.9289 300.836 66.1549 299.116 65.0269 296.421C64.882 296.075 64.5564 295.837 64.1824 295.807L53.798 294.965C53.3688 294.93 52.9649 295.175 52.7981 295.572C51.4504 298.779 50.7064 300.87 49.8835 303.942C49.728 304.522 50.1251 305.105 50.7221 305.174C56.8629 305.887 60.5512 305.675 66.3573 305.129C66.895 305.078 67.2987 304.607 67.246 304.069Z" fill="black"/>
<path d="M77.6492 28.3706L75.4333 36.9175C88.6019 48.3133 94.3209 46.203 94.4264 43.8816V38.1837C98.3461 40.3995 102.25 38.9223 103.411 38.1837C105.943 36.6009 105.431 33.4354 104.677 30.5865C103.923 27.7375 104.255 27.5454 104.361 26.4713C105.31 26.7878 106.26 25.5216 106.26 25.2051C107.432 21.6597 102.196 13.8092 99.8078 10.9603L94.4264 8.11133L89.6782 8.74443L83.6637 20.1403L77.6492 28.3706Z" fill="#E1A185"/>
<path d="M84.2106 161.152L132.108 153.263C133.742 152.993 135.285 154.099 135.555 155.733L141.227 190.033C141.496 191.661 140.399 193.202 138.771 193.479L90.876 201.65C89.2354 201.93 87.6806 200.82 87.4111 199.178L81.7377 164.597C81.4696 162.963 82.5765 161.421 84.2106 161.152Z" fill="#693214"/>
<path d="M108.555 150.471L106.893 144.861L105.943 145.178L105.31 155.941L106.816 155.014C108.356 154.066 109.069 152.204 108.555 150.471Z" fill="#E29F7F"/>
<path d="M113.224 159.106L112.184 153.493C111.884 151.87 110.329 150.795 108.705 151.087L102.212 152.252C100.595 152.542 99.5127 154.078 99.7827 155.698L100.878 162.272" stroke="#693214" stroke-width="3"/>
<path d="M86.8292 19.8239C83.7903 27.6743 79.443 28.7928 77.6492 28.3707C79.9283 20.7735 81.1312 12.9653 81.4478 10.0108C83.7692 8.53358 90.1846 5.5791 97.2753 5.5791C104.366 5.5791 107.104 7.05634 106.893 8.11151C106.893 10.1374 104.149 14.0205 102.778 14.126C98.4726 13.6195 95.8136 11.1715 94.5474 10.6439C94.1253 10.7494 92.015 10.0108 91.3819 11.277C91.0238 11.9933 92.015 13.9149 92.6481 14.7591C94.1675 17.798 94.3209 20.8791 93.7933 22.3563C92.7803 24.3823 91.2609 21.9342 90.6278 20.457C88.8551 17.6713 87.3567 18.8742 86.8292 19.8239Z" fill="#0B2F51"/>
<path d="M102.778 296.173L105.943 145.178L72.3889 136.631L91.0655 296.173H102.778Z" fill="#0C314B"/>
<path d="M73.9716 148.344C83.848 151.129 100.034 147.183 106.893 144.862C108.666 120.804 99.4012 71.1053 94.5474 49.2632L96.1302 44.1984L87.2668 41.666L73.9716 148.344Z" fill="#D7E4F5"/>
<path d="M105.31 107.825C106.83 119.981 103.833 123.02 102.145 123.02C98.8527 123.02 98.0296 116.056 98.0296 112.573L93.9144 49.5798C92.6482 49.5798 92.3317 47.2584 92.3317 46.0977C93.9144 41.0329 95.1806 42.9322 96.7634 44.1984C98.0296 45.2114 97.291 48.6301 96.7634 50.2129C98.9793 64.3522 103.791 95.6696 105.31 107.825Z" fill="#E83D43"/>
<path d="M44.849 148.66C43.5828 158.79 48.7531 251.223 51.4966 296.173H65.7414L88.8496 152.142L44.849 148.66Z" fill="#113650"/>
<path d="M84.4177 164.171L82.5184 155.941L45.1654 150.243V158.156C50.9899 163.221 73.7605 164.276 84.4177 164.171Z" fill="#0C314B"/>
<path d="M143.929 119.221C145.449 117.195 146.04 113.312 146.145 111.624L110.692 90.0984L88.2164 52.4288V44.2638C88.2164 42.1391 86.8736 40.2464 84.8681 39.5445L75.5543 36.2847C63.5254 42.2991 54.3454 68.5729 49.9137 85.3501C46.3683 98.7719 43.1606 134.416 41.9999 150.56C44.1103 152.142 50.99 155.814 61.6261 157.84C72.2622 159.866 88.0054 158.051 94.5474 156.891C95.0539 138.404 92.6481 108.036 91.3819 95.1632L100.878 104.343C108.476 110.927 132.745 117.005 143.929 119.221Z" fill="#113650"/>
<path d="M91.6985 95.4796L73.3385 74.9038C75.3644 81.7413 92.3316 107.825 105.627 110.674L105.31 107.192C100.562 104.976 97.7129 100.861 91.6985 95.4796Z" fill="#0C314B" style="mix-blend-mode:overlay"/>
</svg>
