<svg width="326" height="309" viewBox="0 0 326 309" fill="none" xmlns="http://www.w3.org/2000/svg">
<ellipse cx="165" cy="306" rx="140" ry="3" fill="#BFBFBF"/>
<circle cx="150" cy="156" r="145" fill="#FFE3BA"/>
<rect x="36.9329" y="270.241" width="209.933" height="3.65101" fill="#BDCFFA"/>
<path d="M285.363 216.389H247.094V285.758H299.121L296.839 246.966L287.535 217.973C287.232 217.029 286.354 216.389 285.363 216.389Z" fill="url(#paint0_linear_1_486)"/>
<path d="M286.96 220.926L288.396 220.496L297.067 246.053C297.249 246.586 297.158 246.801 296.839 247.114L295.307 247.435C294.119 247.683 292.944 246.959 292.634 245.786L286.34 222.034C286.214 221.558 286.489 221.068 286.96 220.926Z" fill="#190D90"/>
<path d="M257.819 240.603V222.55C257.819 221.541 258.636 220.724 259.644 220.724H281.929C282.777 220.724 283.513 221.307 283.706 222.132L288.921 244.341C289.216 245.598 288.148 246.756 286.871 246.563L259.372 242.408C258.479 242.274 257.819 241.506 257.819 240.603Z" fill="#190D90"/>
<path d="M249.832 220.724V263.167" stroke="#F1F4FE" stroke-width="0.912752" stroke-linecap="round"/>
<path d="M266.033 248.334H260.101C258.84 248.334 257.819 249.356 257.819 250.616C257.819 251.877 258.84 252.898 260.101 252.898H266.033C267.294 252.898 268.315 251.877 268.315 250.616C268.315 249.356 267.294 248.334 266.033 248.334Z" fill="#7B96F3"/>
<path d="M300.262 277.58C300.262 276.305 299.218 275.277 297.943 275.298L258.04 275.938C257.79 275.942 257.591 276.145 257.591 276.394V283.834C257.591 285.042 258.532 286.041 259.738 286.112L297.846 288.354C299.157 288.431 300.262 287.389 300.262 286.076V277.58Z" fill="#7C96F2"/>
<path d="M247.094 216.616V198.198C247.094 197.003 248.023 195.999 249.218 196C263.376 196.013 269.078 207.28 270.523 214.62C270.732 215.682 269.884 216.616 268.802 216.616H247.094Z" fill="#BBCEF9"/>
<path d="M294.785 263.623L297.856 263.785C298.57 263.822 299.135 264.402 299.153 265.117L299.315 271.415C299.334 272.158 298.757 272.78 298.014 272.817L294.785 272.979V263.623Z" fill="#BBCFF9"/>
<path d="M294.785 274.12V263.167H293.416C292.156 263.167 291.134 264.189 291.134 265.449V271.838C291.134 273.098 292.156 274.12 293.416 274.12H294.785Z" fill="#F1F4FE"/>
<path d="M250.517 199.502C254.776 199.959 263.889 203.473 266.262 213.878" stroke="white" stroke-width="0.912752" stroke-linecap="round"/>
<path d="M247.094 273.664H36.9329V285.529H247.094V273.664Z" fill="#7C96F3"/>
<rect x="33.7383" y="255.18" width="212.215" height="15.0604" rx="1.8255" fill="url(#paint1_linear_1_486)"/>
<rect x="31" y="249.704" width="214.953" height="8.67114" rx="1.8255" fill="url(#paint2_linear_1_486)"/>
<rect x="36.4766" y="240.576" width="209.477" height="9.12752" rx="1.8255" fill="url(#paint3_linear_1_486)"/>
<rect x="33.7383" y="233.274" width="212.215" height="8.67114" rx="1.8255" fill="url(#paint4_linear_1_486)"/>
<rect x="33.7383" y="224.603" width="212.215" height="8.67114" rx="1.8255" fill="url(#paint5_linear_1_486)"/>
<rect x="36.4766" y="215.932" width="209.477" height="8.67114" rx="1.8255" fill="url(#paint6_linear_1_486)"/>
<path d="M55.4161 236.469L54.5548 199.221C54.5262 197.982 53.5133 196.992 52.2736 196.992H49.2463C48.0824 196.992 47.1051 197.868 46.978 199.025L42.8657 236.469H55.4161Z" fill="#BCCFFA"/>
<path d="M55.4161 236.469L54.3381 274.413C54.303 275.647 53.2922 276.63 52.0571 276.63H49.1694C48.0021 276.63 47.023 275.749 46.9002 274.588L42.8657 236.469H55.4161Z" fill="url(#paint7_linear_1_486)"/>
<path d="M35.5638 270.469H33.7383C32.9821 270.469 32.3691 271.082 32.3691 271.838V285.529C32.3691 286.285 32.9821 286.898 33.7383 286.898H35.5638C36.3199 286.898 36.9329 286.285 36.9329 285.529V271.838C36.9329 271.082 36.3199 270.469 35.5638 270.469Z" fill="#90B1F8"/>
<circle cx="271.51" cy="288.496" r="15.5168" fill="#190E90"/>
<mask id="path-25-inside-1_1_486" fill="white">
<path d="M282.577 295.96C282.734 296.066 282.947 296.025 283.049 295.865C284.738 293.22 285.469 290.071 285.113 286.946C284.744 283.707 283.232 280.706 280.848 278.482C278.463 276.259 275.364 274.959 272.107 274.817C268.965 274.68 265.874 275.629 263.353 277.499C263.201 277.612 263.175 277.827 263.292 277.976C263.408 278.125 263.623 278.151 263.775 278.039C266.167 276.269 269.098 275.371 272.077 275.501C275.171 275.636 278.116 276.871 280.381 278.983C282.646 281.095 284.083 283.946 284.433 287.023C284.771 289.987 284.079 292.972 282.481 295.482C282.379 295.642 282.42 295.854 282.577 295.96Z"/>
</mask>
<path d="M282.577 295.96C282.734 296.066 282.947 296.025 283.049 295.865C284.738 293.22 285.469 290.071 285.113 286.946C284.744 283.707 283.232 280.706 280.848 278.482C278.463 276.259 275.364 274.959 272.107 274.817C268.965 274.68 265.874 275.629 263.353 277.499C263.201 277.612 263.175 277.827 263.292 277.976C263.408 278.125 263.623 278.151 263.775 278.039C266.167 276.269 269.098 275.371 272.077 275.501C275.171 275.636 278.116 276.871 280.381 278.983C282.646 281.095 284.083 283.946 284.433 287.023C284.771 289.987 284.079 292.972 282.481 295.482C282.379 295.642 282.42 295.854 282.577 295.96Z" stroke="#7B95F3" stroke-width="0.912752" mask="url(#path-25-inside-1_1_486)"/>
<circle cx="271.738" cy="288.268" r="7.07382" fill="#7B95F3"/>
<circle cx="199.859" cy="288.496" r="15.5168" fill="#190E90"/>
<mask id="path-28-inside-2_1_486" fill="white">
<path d="M210.926 295.96C211.083 296.066 211.296 296.025 211.398 295.865C213.087 293.22 213.818 290.071 213.462 286.946C213.093 283.707 211.581 280.706 209.197 278.482C206.812 276.259 203.713 274.959 200.456 274.817C197.314 274.68 194.223 275.629 191.702 277.499C191.55 277.612 191.524 277.827 191.641 277.976C191.757 278.125 191.972 278.151 192.124 278.039C194.516 276.269 197.447 275.371 200.426 275.501C203.52 275.636 206.465 276.871 208.73 278.983C210.995 281.095 212.432 283.946 212.782 287.023C213.12 289.987 212.428 292.972 210.83 295.482C210.728 295.642 210.769 295.854 210.926 295.96Z"/>
</mask>
<path d="M210.926 295.96C211.083 296.066 211.296 296.025 211.398 295.865C213.087 293.22 213.818 290.071 213.462 286.946C213.093 283.707 211.581 280.706 209.197 278.482C206.812 276.259 203.713 274.959 200.456 274.817C197.314 274.68 194.223 275.629 191.702 277.499C191.55 277.612 191.524 277.827 191.641 277.976C191.757 278.125 191.972 278.151 192.124 278.039C194.516 276.269 197.447 275.371 200.426 275.501C203.52 275.636 206.465 276.871 208.73 278.983C210.995 281.095 212.432 283.946 212.782 287.023C213.12 289.987 212.428 292.972 210.83 295.482C210.728 295.642 210.769 295.854 210.926 295.96Z" stroke="#7B95F3" stroke-width="0.912752" mask="url(#path-28-inside-2_1_486)"/>
<circle cx="200.087" cy="288.268" r="7.07382" fill="#7B95F3"/>
<circle cx="97.6308" cy="288.496" r="15.5168" fill="#190E90"/>
<mask id="path-31-inside-3_1_486" fill="white">
<path d="M108.698 295.96C108.854 296.066 109.067 296.025 109.169 295.865C110.859 293.22 111.59 290.071 111.234 286.946C110.865 283.707 109.352 280.706 106.968 278.482C104.584 276.259 101.485 274.959 98.2279 274.817C95.0852 274.68 91.9948 275.629 89.4739 277.499C89.3221 277.612 89.2959 277.827 89.4123 277.976C89.5287 278.125 89.7435 278.151 89.8955 278.039C92.2878 276.269 95.2182 275.371 98.1981 275.501C101.292 275.636 104.236 276.871 106.501 278.983C108.766 281.095 110.203 283.946 110.554 287.023C110.891 289.987 110.2 292.972 108.601 295.482C108.5 295.642 108.541 295.854 108.698 295.96Z"/>
</mask>
<path d="M108.698 295.96C108.854 296.066 109.067 296.025 109.169 295.865C110.859 293.22 111.59 290.071 111.234 286.946C110.865 283.707 109.352 280.706 106.968 278.482C104.584 276.259 101.485 274.959 98.2279 274.817C95.0852 274.68 91.9948 275.629 89.4739 277.499C89.3221 277.612 89.2959 277.827 89.4123 277.976C89.5287 278.125 89.7435 278.151 89.8955 278.039C92.2878 276.269 95.2182 275.371 98.1981 275.501C101.292 275.636 104.236 276.871 106.501 278.983C108.766 281.095 110.203 283.946 110.554 287.023C110.891 289.987 110.2 292.972 108.601 295.482C108.5 295.642 108.541 295.854 108.698 295.96Z" stroke="#7B95F3" stroke-width="0.912752" mask="url(#path-31-inside-3_1_486)"/>
<circle cx="97.859" cy="288.268" r="7.07382" fill="#7B95F3"/>
<circle cx="55.1879" cy="288.496" r="15.5168" fill="#190E90"/>
<mask id="path-34-inside-4_1_486" fill="white">
<path d="M66.2547 295.96C66.4114 296.066 66.6245 296.025 66.7263 295.865C68.4159 293.22 69.1472 290.071 68.7911 286.946C68.4221 283.707 66.9094 280.706 64.5253 278.482C62.1411 276.259 59.0419 274.959 55.7851 274.817C52.6424 274.68 49.5519 275.629 47.031 277.499C46.8792 277.612 46.853 277.827 46.9694 277.976C47.0858 278.125 47.3007 278.151 47.4526 278.039C49.845 276.269 52.7753 275.371 55.7552 275.501C58.8492 275.636 61.7935 276.871 64.0584 278.983C66.3234 281.095 67.7604 283.946 68.111 287.023C68.4486 289.987 67.7572 292.972 66.1586 295.482C66.057 295.642 66.098 295.854 66.2547 295.96Z"/>
</mask>
<path d="M66.2547 295.96C66.4114 296.066 66.6245 296.025 66.7263 295.865C68.4159 293.22 69.1472 290.071 68.7911 286.946C68.4221 283.707 66.9094 280.706 64.5253 278.482C62.1411 276.259 59.0419 274.959 55.7851 274.817C52.6424 274.68 49.5519 275.629 47.031 277.499C46.8792 277.612 46.853 277.827 46.9694 277.976C47.0858 278.125 47.3007 278.151 47.4526 278.039C49.845 276.269 52.7753 275.371 55.7552 275.501C58.8492 275.636 61.7935 276.871 64.0584 278.983C66.3234 281.095 67.7604 283.946 68.111 287.023C68.4486 289.987 67.7572 292.972 66.1586 295.482C66.057 295.642 66.098 295.854 66.2547 295.96Z" stroke="#7B95F3" stroke-width="0.912752" mask="url(#path-34-inside-4_1_486)"/>
<circle cx="55.4161" cy="288.268" r="7.07382" fill="#7B95F3"/>
<path d="M173.846 236.469L174.707 199.221C174.736 197.982 175.748 196.992 176.988 196.992H180.015C181.179 196.992 182.157 197.868 182.284 199.025L186.396 236.469H173.846Z" fill="#BCCFFA"/>
<path d="M173.846 236.469L174.924 274.413C174.959 275.647 175.97 276.63 177.205 276.63H180.092C181.26 276.63 182.239 275.749 182.362 274.588L186.396 236.469H173.846Z" fill="url(#paint8_linear_1_486)"/>
<path d="M121.134 236.469L120.273 199.221C120.244 197.982 119.232 196.992 117.992 196.992H114.965C113.801 196.992 112.823 197.868 112.696 199.025L108.584 236.469H121.134Z" fill="#BCCFFA"/>
<path d="M121.134 236.469L120.056 274.413C120.021 275.647 119.01 276.63 117.775 276.63H114.888C113.72 276.63 112.741 275.749 112.618 274.588L108.584 236.469H121.134Z" fill="url(#paint9_linear_1_486)"/>
<path d="M244.356 236.469L243.495 199.221C243.466 197.982 242.453 196.992 241.213 196.992H238.186C237.022 196.992 236.045 197.868 235.918 199.025L231.805 236.469H244.356Z" fill="#BCCFFA"/>
<path d="M244.356 236.469L243.278 274.413C243.243 275.647 242.232 276.63 240.997 276.63H238.109C236.942 276.63 235.963 275.749 235.84 274.588L231.805 236.469H244.356Z" fill="url(#paint10_linear_1_486)"/>
<circle cx="264.519" cy="100.645" r="61.4805" fill="#90B1F9"/>
<circle cx="264.519" cy="100.207" r="59.2926" fill="#7B96F2"/>
<circle cx="265.832" cy="101.082" r="50.9785" fill="#BBCFFA"/>
<path d="M228.2 28.6614C226.012 31.2869 224.262 35.0064 222.293 41.3514C222.293 41.3514 224.918 42.8829 230.607 43.3205C236.295 43.7581 235.42 44.1957 235.42 44.1957L238.265 45.7272L247.016 33.0373C251.742 34.0875 254.382 27.7863 255.112 24.5044L247.673 16.8467L243.516 17.5031V22.0977L236.733 33.9125L230.607 27.7863L228.2 28.6614Z" fill="#D8CCCB"/>
<path d="M233.67 15.5332L228.419 28.442C230.169 28.442 232.503 30.9216 233.451 32.1615C233.962 32.8179 235.289 34.1744 236.514 34.3494C237.739 34.5244 239.213 32.8179 239.796 31.9427L245.047 20.5654C242.422 14.9644 236.368 14.8769 233.67 15.5332Z" fill="#C54037"/>
<path d="M231.701 9.62632H220.105C225.181 11.9017 227.179 15.9713 227.544 17.7217L246.141 18.5968L254.893 25.5982C257.956 22.3163 259.05 17.9404 258.831 15.9713C257.081 4.41907 247.891 1.82274 243.516 1.9686C237.039 1.9686 232.941 7.07374 231.701 9.62632Z" fill="#190E90"/>
<path d="M264.082 152.279C255.155 152.104 249.131 149.726 247.235 148.559C246.885 139.107 243.88 126.534 242.421 121.429C241.255 116.178 237.652 103.663 232.576 95.6116C227.5 87.56 226.231 82.7758 226.231 81.3901L278.96 58.6357L293.181 83.7968C299.307 102.7 293.983 132.952 290.556 145.715C290.031 146.415 284.794 148.778 282.242 149.872C279.908 150.747 273.009 152.454 264.082 152.279Z" fill="#FC7B70"/>
<path d="M303.412 86.0084L241.579 101.826C240.443 102.117 239.872 103.389 240.41 104.431L256.375 135.377C256.783 136.167 257.7 136.548 258.548 136.28L311.477 119.533C312.388 119.245 312.922 118.304 312.704 117.374L305.641 87.3588C305.407 86.364 304.402 85.7551 303.412 86.0084Z" fill="#BCCFF9"/>
<path d="M307.521 82.9396L245.53 98.2077C244.497 98.4621 243.9 99.5417 244.233 100.552L256.495 137.756C256.811 138.717 257.849 139.237 258.809 138.916L315.284 119.972C316.156 119.679 316.675 118.783 316.493 117.881L309.748 84.3521C309.543 83.3335 308.53 82.6911 307.521 82.9396Z" fill="#90B1F9"/>
<path d="M305.809 85.5806L249.838 94.4289C248.788 94.5949 248.101 95.6197 248.347 96.6541L257.951 137.073C258.192 138.086 259.23 138.693 260.231 138.406L316.149 122.37C317.118 122.092 317.679 121.081 317.4 120.111L307.848 86.8794C307.594 85.9937 306.719 85.4367 305.809 85.5806Z" fill="#190D90"/>
<path d="M275.853 133.938L267.364 136.307C268.677 138.276 272.396 141.339 278.085 141.995C282.636 142.52 286.982 138.568 288.587 136.526C296.113 124.973 298.87 113.334 299.308 108.958C298.214 107.864 294.275 105.019 289.681 104.801C286.005 104.626 283.627 105.457 282.898 105.895C285.174 114.996 284.867 123.544 284.43 126.68C282.679 128.605 277.866 128.916 276.772 128.868C275.678 128.82 273.709 128.693 271.959 127.117C270.208 125.542 269.625 126.315 269.552 126.899C269.863 128.61 273.712 131.485 275.997 133.127C276.309 133.351 276.222 133.835 275.853 133.938Z" fill="#AD332D"/>
<path d="M226.45 48.1336C212.447 66.162 193.047 79.8584 185.098 84.453L180.941 86.6409C183.916 90.1416 184.952 96.2678 185.098 98.8933C188.89 98.6016 199.057 96.8804 209.384 92.3295C219.711 87.7787 225.064 82.8486 226.45 80.9524L263.207 67.8248C271.083 76.1389 276.772 88.3913 277.866 91.4544C280.141 96.7054 282.519 106.113 283.904 110.708C289.33 108.608 296.025 111.583 298.651 113.334C301.802 97.7556 297.776 83.2132 295.369 77.8893C286.967 58.2855 277.866 49.3005 274.365 47.2584C269.639 45.333 256.351 44.4141 250.298 44.1953C238.396 44.8954 229.44 47.1125 226.45 48.1336Z" fill="#FC7B70"/>
<path d="M249.642 49.6652C254.878 49.2289 255.768 47.0397 256.862 45.727C254.236 41.5699 249.35 34.8603 246.141 30.8491L238.461 43.3793C238.077 44.0063 237.354 44.3415 236.627 44.2296L235.616 44.074C235.306 44.0263 235.041 44.2986 235.104 44.6057C235.513 46.5872 236.038 47.6174 237.827 49.0089C239.577 49.884 244.391 50.1028 249.642 49.6652Z" fill="url(#paint11_linear_1_486)"/>
<path d="M152.732 87.7015C150.675 88.5254 147.397 90.1336 146.372 92.3296C147.772 93.2048 157.53 96.9243 161.906 98.6746C171.533 99.8998 184.004 99.1851 189.036 98.4558C186.192 93.4236 185.317 87.2974 184.879 84.4531C183.056 85.5471 177.44 88.3476 171.314 90.7981C165.188 93.2486 160.302 93.4236 158.624 93.2048C158.488 91.7104 156.918 89.7098 155.748 88.4079C154.984 87.5582 153.792 87.2767 152.732 87.7015Z" fill="#A12A24"/>
<path d="M151.842 107.645C151.404 108.375 150.529 109.483 149.654 108.958C147.612 107.718 143.44 105.151 142.215 103.051C142.271 102.828 142.734 102.902 142.871 102.613C143.069 102.198 143.418 101.339 143.746 100.863C144.984 99.0704 146.553 97.2188 148.122 97.5809C149.535 97.907 151.696 99.4042 152.06 99.9876C152.936 100.936 154.467 103.269 154.03 104.582C153.801 105.267 152.571 106.697 151.842 107.645Z" fill="#AA302B"/>
<path d="M280.71 99.5501C281.139 100.836 283.543 108.97 283.837 110.656C284.925 116.896 284.867 122.961 284.43 126.68C284.211 126.899 283.773 127.337 283.554 127.337C283.85 115.72 279.868 102.221 274.925 90.4523L277.316 90.0786C278.831 93.6957 279.802 96.8254 280.71 99.5501Z" fill="#0A0449" style="mix-blend-mode:overlay"/>
<path d="M263.207 67.8252C270.837 76.8176 274.818 84.1131 277.318 90.0815L274.93 90.464C271.084 81.3028 266.655 73.1888 263.207 67.8252Z" fill="#E85F59" style="mix-blend-mode:overlay"/>
<path d="M252.049 33.2557C250.721 35.3613 246.478 37.4398 245.047 36.5375C243.616 35.6353 244.174 32.6237 245.502 30.5182C247.362 27.5671 249.305 27.54 250.736 28.4423C252.167 29.3445 253.376 31.1501 252.049 33.2557Z" fill="#A93C36"/>
<circle cx="61.4805" cy="101.082" r="61.4805" fill="#90B1F9"/>
<circle cx="61.4806" cy="100.644" r="59.2926" fill="#7B96F2"/>
<circle cx="62.7932" cy="101.519" r="50.9785" fill="#BBCFFA"/>
<path d="M169.126 46.6025C170.001 46.6025 170.366 47.3318 170.439 47.6965C169.538 49.3227 168.378 50.4339 164.532 52.9475L152.936 48.3529C154.161 46.9526 156.947 47.0401 158.187 47.2589C158.843 47.4048 160.637 47.8278 162.562 48.3529C164.488 48.878 165.844 48.5717 166.282 48.3529C166.865 47.7694 168.251 46.6025 169.126 46.6025Z" fill="#FEA9A6"/>
<path d="M118.585 67.8252C114.734 67.8252 110.563 66.6583 108.958 66.0749C101.519 76.5769 100.353 83.1406 100.425 84.891C104.145 85.2556 113.203 85.8536 119.679 85.3285C126.155 84.8034 133.025 81.3174 135.651 79.6399C137.547 78.1813 142.302 74.1702 146.153 69.7943C150.004 65.4185 153.3 58.0525 154.467 54.9165C159.368 57.1919 167.303 57.9066 170.658 57.9796L181.597 51.4158C180.897 50.5406 178.826 51.0511 177.878 51.4158L173.94 53.1661L176.346 49.8843C175.121 49.3591 172.043 51.1241 170.658 52.0722C169.607 52.5973 168.47 52.5827 168.032 52.5098C163.831 50.9345 156.801 48.4986 153.811 47.4775C151.185 47.4775 150.237 49.5196 150.091 50.5406C138.189 62.6179 129.525 66.3666 126.68 66.7312C125.587 67.0959 122.436 67.8252 118.585 67.8252Z" fill="url(#paint12_linear_1_486)"/>
<path d="M59.5227 51.0721C67.0491 44.0707 73.4524 43.1956 75.7133 43.6332C79.4215 46.8214 84.0161 49.3393 89.7047 49.3393C94.7314 52.5595 97.9773 57.3561 99.1128 60.1677C99.8702 62.0433 99.3316 70.8885 98.4564 74.1704L95.6233 92.6425C92.9978 93.6927 86.9446 102.415 84.2461 106.645L78.9951 115.616C70.9436 128.918 68.336 145.715 68.0443 152.279C50.1034 154.029 36.9759 146.153 31.5061 141.777C31.4331 139.808 31.6923 130.844 33.2676 113.865C34.8429 96.8871 40.3419 80.8278 43.1133 74.9204C45.4471 69.8882 51.9962 58.0734 59.5227 51.0721Z" fill="#FD7E73"/>
<path d="M88.8294 52.7285C82.3532 51.3282 76.5041 46.4564 74.3892 44.1956L84.8912 29.9741L95.3932 35.6627L88.8294 52.7285Z" fill="url(#paint13_linear_1_486)"/>
<path d="M86.2041 53.6036C82.0471 48.1338 75.0457 47.4774 69.5759 51.4156C73.9518 48.5714 80.7343 48.3526 84.6726 52.7285C88.1732 57.1043 94.5182 66.5123 98.4565 74.17L98.6753 72.6385C93.8618 64.9808 91.8927 61.2613 86.2041 53.6036Z" fill="#E85F59"/>
<path d="M65.2002 70.6699C78.3277 88.8734 85.7666 92.5491 91.674 96.2686L88.1733 100.863C75.0458 87.5169 67.1693 74.3894 65.2002 70.6699Z" fill="#E85F59"/>
<path d="M99.1128 60.1675C100.513 62.0928 106.552 64.9809 109.177 66.0749C105.777 70.6394 104.212 73.3741 101.957 78.546L96.7061 77.0145C97.4409 76.2462 98.0148 75.3037 98.4564 74.2535C99.1128 68.4816 99.7691 65.8561 99.1128 60.1675Z" fill="#E85F59"/>
<path d="M98.4566 74.1704C89.1799 82.0389 84.1709 88.6397 83.1411 90.5798C84.2351 91.455 87.7757 94.1941 96.0498 98.6751C104.338 103.164 115.376 105.166 120.555 105.458C124.712 105.692 133.171 104.481 135.651 103.489C137.839 102.613 140.1 102.395 140.902 102.613L141.816 102.956C142.281 103.13 142.797 102.899 143.012 102.452C144.327 99.7261 146.177 98.4078 147.028 98.2375C148.122 98.0187 148.997 98.0187 149.873 98.4563L151.623 99.9879C152.134 100.571 152.892 101.782 153.592 102.832C154.292 103.882 153.884 104.874 153.592 105.239L152.098 107.231C151.825 107.594 151.898 108.068 152.334 108.197C152.892 108.363 153.612 108.474 154.03 108.521C159.16 108.841 161.622 103.191 162.392 99.6051C162.501 99.0992 162.14 98.5996 161.646 98.4457C158.802 97.5593 151.29 94.378 147.074 92.5412C146.819 92.43 146.723 92.1182 146.871 91.882L147.685 90.5798C140.858 90.0547 138.568 93.57 138.277 95.3932C136.491 95.9162 135.593 96.0405 134.12 96.0496C119.592 96.2246 104.291 81.5364 98.4566 74.1704Z" fill="#FDA9A7"/>
<path d="M94.518 40.4764C98.143 41.6847 102.176 39.3824 102.395 39.1636C104.801 37.6321 104.582 34.1314 104.582 32.3811C104.582 26.2549 101.446 17.4303 99.5503 13.3462L85.9852 15.0965L78.1086 24.2858C80.5047 31.1316 86.6415 37.8509 94.518 40.4764Z" fill="#FDB2AF"/>
<path d="M86.8797 27.27L86.2317 27.8254C85.9998 28.0242 85.6419 27.9435 85.5115 27.6672C84.6123 25.7623 83.2203 23.4307 81.8283 23.6295C80.2967 23.8483 79.4215 24.5047 80.0779 27.5678C80.453 29.3181 83.3598 31.7978 84.6726 32.3812V34.3503C78.2595 34.671 75.3954 32.079 74.5671 30.4081C74.436 30.1437 74.4945 29.8343 74.6715 29.5983L75.2271 28.8575C75.4996 28.4941 75.4631 27.9879 75.1456 27.663C73.5274 26.007 71.0592 23.1956 70.6699 19.6913C70.3638 16.9369 72.1536 15.9885 73.437 15.7935C73.754 15.7454 74.034 15.9436 74.2788 16.1507C74.7415 16.5422 75.2489 16.3664 75.4833 16.1906C75.7021 14.6591 76.1397 11.1584 79.4215 8.97047C82.7034 6.78255 85.7665 5.4698 91.0175 4.81342C94.7374 4.34844 97.4736 2.13351 98.7097 0.720923C98.9432 0.454085 99.3455 0.393316 99.6292 0.606061C99.8442 0.767325 100.138 0.775467 100.361 0.626379L100.929 0.247625C101.164 0.0913844 101.459 0.0475873 101.718 0.158579C104.066 1.16518 105.251 3.71526 105.458 7.43893C105.637 10.6614 102.978 12.9087 101.301 14.0027L101.188 14.0593C98.9375 15.1847 93.8348 17.7369 89.7048 18.5973C85.504 19.4725 84.8913 20.1289 84.8913 21.4416C84.8913 23.3024 86.1046 25.5324 86.9161 26.5166C87.0981 26.7373 87.0969 27.0838 86.8797 27.27Z" fill="#180D90"/>
<defs>
<linearGradient id="paint0_linear_1_486" x1="273.107" y1="216.389" x2="273.107" y2="285.758" gradientUnits="userSpaceOnUse">
<stop stop-color="#4546EC"/>
<stop offset="1" stop-color="#4546EC"/>
</linearGradient>
<linearGradient id="paint1_linear_1_486" x1="139.846" y1="255.18" x2="139.846" y2="270.241" gradientUnits="userSpaceOnUse">
<stop stop-color="#6B3E15"/>
<stop offset="0.515625" stop-color="#9B6636"/>
<stop offset="1" stop-color="#482300"/>
</linearGradient>
<linearGradient id="paint2_linear_1_486" x1="138.477" y1="249.704" x2="138.477" y2="258.375" gradientUnits="userSpaceOnUse">
<stop stop-color="#6B3E15"/>
<stop offset="0.515625" stop-color="#9B6636"/>
<stop offset="1" stop-color="#482300"/>
</linearGradient>
<linearGradient id="paint3_linear_1_486" x1="141.215" y1="240.576" x2="141.215" y2="249.704" gradientUnits="userSpaceOnUse">
<stop stop-color="#955C3C"/>
<stop offset="0.651042" stop-color="#DC9867"/>
<stop offset="1" stop-color="#8A5128"/>
</linearGradient>
<linearGradient id="paint4_linear_1_486" x1="139.846" y1="233.274" x2="139.846" y2="241.945" gradientUnits="userSpaceOnUse">
<stop stop-color="#CA925E"/>
<stop offset="0.515625" stop-color="#DC9F67"/>
<stop offset="1" stop-color="#914500"/>
</linearGradient>
<linearGradient id="paint5_linear_1_486" x1="139.846" y1="224.603" x2="139.846" y2="233.274" gradientUnits="userSpaceOnUse">
<stop stop-color="#6B3E15"/>
<stop offset="0.515625" stop-color="#9B6636"/>
<stop offset="1" stop-color="#482300"/>
</linearGradient>
<linearGradient id="paint6_linear_1_486" x1="141.215" y1="215.932" x2="141.215" y2="224.603" gradientUnits="userSpaceOnUse">
<stop stop-color="#CA925E"/>
<stop offset="0.515625" stop-color="#DC9F67"/>
<stop offset="1" stop-color="#914500"/>
</linearGradient>
<linearGradient id="paint7_linear_1_486" x1="49.1409" y1="276.63" x2="49.1409" y2="236.469" gradientUnits="userSpaceOnUse">
<stop stop-color="#4546EC"/>
<stop offset="1" stop-color="#88A5E8"/>
</linearGradient>
<linearGradient id="paint8_linear_1_486" x1="180.121" y1="276.63" x2="180.121" y2="236.469" gradientUnits="userSpaceOnUse">
<stop stop-color="#4546EC"/>
<stop offset="1" stop-color="#88A5E8"/>
</linearGradient>
<linearGradient id="paint9_linear_1_486" x1="114.859" y1="276.63" x2="114.859" y2="236.469" gradientUnits="userSpaceOnUse">
<stop stop-color="#4546EC"/>
<stop offset="1" stop-color="#88A5E8"/>
</linearGradient>
<linearGradient id="paint10_linear_1_486" x1="238.081" y1="276.63" x2="238.081" y2="236.469" gradientUnits="userSpaceOnUse">
<stop stop-color="#4546EC"/>
<stop offset="1" stop-color="#88A5E8"/>
</linearGradient>
<linearGradient id="paint11_linear_1_486" x1="245.922" y1="30.8491" x2="245.922" y2="49.4549" gradientUnits="userSpaceOnUse">
<stop stop-color="#AF362D"/>
<stop offset="1" stop-color="#DF4A42"/>
</linearGradient>
<linearGradient id="paint12_linear_1_486" x1="108.302" y1="66.2936" x2="137.183" y2="68.044" gradientUnits="userSpaceOnUse">
<stop stop-color="#F29A97"/>
<stop offset="1" stop-color="#FDB2AF"/>
</linearGradient>
<linearGradient id="paint13_linear_1_486" x1="84.8912" y1="29.9741" x2="77.671" y2="50.3218" gradientUnits="userSpaceOnUse">
<stop stop-color="#EA8884"/>
<stop offset="0.661458" stop-color="#FDB2AF"/>
</linearGradient>
</defs>
</svg>
