<svg width="394" height="307" viewBox="0 0 394 307" fill="none" xmlns="http://www.w3.org/2000/svg">
<ellipse cx="197" cy="301" rx="197" ry="6" fill="#BFBFBF"/>
<rect x="54.2949" y="168.352" width="172.633" height="223.085" transform="rotate(-76.5735 54.2949 168.352)" fill="#C6FFE7"/>
<path d="M260.922 40.9332C261.35 43.9283 263.596 47.5296 264.666 48.9559C262.17 50.7387 256.108 54.3044 251.83 54.3044C247.551 54.3044 246.481 52.5215 246.481 51.6301C249.048 46.9235 251.473 34.6933 252.365 29.1665H260.922C260.744 31.8407 260.494 37.938 260.922 40.9332Z" fill="url(#paint0_linear_534_8217)"/>
<path d="M240.598 26.4923C240.598 19.5365 243.532 14.3088 245.192 12.3059C245.336 12.1325 245.513 11.9748 245.694 11.8414C264.703 -2.13765 268.394 23.3043 265.201 27.5622C264.177 28.9269 262.434 31.302 260.387 32.9107C254.946 37.1866 248.621 40.9334 245.412 39.8635C242.679 38.9526 240.598 35.5847 240.598 26.4923Z" fill="#984D59"/>
<path d="M271.588 5.66382L268.41 8.84182L270.55 17.3995C270.906 21.6783 268.41 23.1757 268.41 24.8873C268.41 27.0267 272.154 29.7009 272.689 29.7009C273.117 29.7009 274.293 28.6312 274.828 28.0963C275.72 28.9878 277.717 30.6636 278.572 30.2357C279.428 29.8079 279.642 27.5615 279.642 26.4918C280.355 26.8484 282.209 27.2406 283.921 25.957C285.632 24.6733 284.277 22.213 283.386 21.1433C284.277 20.965 286.06 20.2876 286.06 19.0039C286.06 17.7203 284.99 17.0428 284.456 16.8645C285.311 16.0088 285.169 13.2989 284.99 12.0509C283.279 6.91637 278.929 7.05899 276.968 7.77212L274.859 5.66381C273.956 4.76055 272.492 4.76055 271.588 5.66382Z" fill="url(#paint1_linear_534_8217)"/>
<path d="M255.039 3.49377C246.481 3.92165 243.272 8.66396 242.737 10.9816C242.202 14.7256 244.342 15.2604 247.016 15.2604C248.707 15.2604 250.76 14.7255 254.504 15.2604C257.499 15.6882 259.852 19.0043 259.852 21.6785V26.4922C260.387 25.4225 263.596 23.8179 264.131 27.027C264.747 30.72 260.922 31.8407 260.387 32.9103C263.596 34.5149 267.875 31.3058 270.015 27.5619C273.17 22.0391 272.867 15.7953 271.619 13.121C269.658 9.73366 263.596 3.06589 255.039 3.49377Z" fill="#2F1C6E"/>
<path d="M224.018 108.859L233.11 84.2558C235.25 78.3723 241.133 84.2557 241.133 90.674C242.416 102.655 234.536 114.207 230.436 118.486C214.39 125.974 176.416 125.974 178.021 125.439C179.304 125.011 178.556 120.626 178.021 118.486C189.146 118.914 213.321 112.246 224.018 108.859Z" fill="#A5C5F5"/>
<path d="M159.052 119.747L161.44 116.881L164.115 127.578L159.026 120.454C158.873 120.24 158.884 119.949 159.052 119.747Z" fill="#924B56"/>
<path d="M138.365 154.056C147.92 122.828 178.163 121.18 192.091 124.259C207.8 127.527 226.312 137.278 240.659 137.64C253.969 137.976 263.49 134.232 270.015 125.974C276.54 117.717 265.067 98.1619 262.527 87.9997C260.922 81.5817 259.318 68.7455 263.597 55.3741C267.673 42.6361 279.642 34.6096 292.478 36.1195L292.985 36.1791C312.713 38.4991 338.58 41.541 350.777 50.0255C355.914 69.4497 350.364 98.7288 347.118 111.711C345.251 118.06 338.433 136.127 326.1 157.598C313.767 179.07 284.071 198.569 270.765 205.634C234.102 226.415 190.439 216.24 172.874 208.762C155.112 199.604 128.81 185.283 138.365 154.056Z" fill="url(#paint2_linear_534_8217)"/>
<path d="M147.534 157.529L101.003 271.987H112.769C119.366 262.538 136.41 237.542 151.813 213.153C167.217 188.764 173.92 170.9 175.346 165.017C184.974 170.544 208.507 182.453 225.622 185.876C247.016 190.155 249.155 179.993 256.643 166.621C262.634 155.924 251.596 146.926 245 145.499C225.567 143.895 182.727 143.837 169.463 142.553C156.199 141.27 149.317 152.002 147.534 157.529Z" fill="#3B2CB6"/>
<path d="M81.2133 285.893C80.3575 288.032 82.283 289.28 83.3526 289.636C97.4726 288.353 109.917 284.466 114.374 282.683C115.657 278.833 113.839 273.591 112.769 271.452C110.63 272.307 104.033 271.808 101.003 271.452C96.2959 277.014 85.8486 283.397 81.2133 285.893Z" fill="#271862"/>
<path d="M143.469 296.59C142.613 298.729 144.539 299.977 145.608 300.334C159.728 299.05 172.172 295.163 176.629 293.38C177.913 289.53 175.881 284.288 174.812 282.149C172.672 281.614 166.789 281.614 163.58 282.149C158.873 287.711 148.104 294.094 143.469 296.59Z" fill="#271862"/>
<path d="M174.812 282.149H163.58L154.487 171.97C151.492 157.422 157.875 151.646 161.44 150.577C174.277 144.158 213.499 143.624 231.505 144.158C260.173 137.312 275.006 145.406 278.572 151.646C286.274 180.742 268.767 195.682 259.318 198.178C233.217 203.74 197.097 183.024 182.299 171.97C186.15 180.1 178.912 248.81 174.812 282.149Z" fill="#322891"/>
<path d="M284.051 302.944L287.26 302.919L272.755 210.188C272.203 208.052 271.126 206.991 269.525 207.538C267.501 208.23 267.23 210.409 267.419 211.834L284.051 302.944Z" fill="#C46673"/>
<path d="M182.618 302.272L179.456 301.724L208.896 212.601C209.788 210.585 211.025 209.713 212.514 210.514C214.399 211.527 214.311 213.721 213.891 215.096L182.618 302.272Z" fill="#C46673"/>
<path d="M224.552 81.0467C224.125 84.4697 228.653 88.178 230.971 89.6042C234.822 105.008 233.467 117.416 232.575 121.695L230.971 137.741L230.436 144.159C231.862 143.624 237.924 142.982 250.76 144.694C266.806 146.833 276.968 156.46 278.037 157.53C281.888 148.972 277.859 138.989 275.363 135.066C270.656 126.937 270.906 120.625 271.619 118.486C275.898 107.254 284.028 81.4746 282.316 68.2104C280.605 54.9462 270.193 49.8472 265.201 48.9558C257.927 47.2443 250.047 48.5992 247.016 49.4906C236.319 53.3415 231.862 61.079 230.971 64.4664L228.831 73.0239C227.583 74.2719 224.98 77.6236 224.552 81.0467Z" fill="#D6E2F9"/>
<path d="M176.773 81.0469H154.302C152.778 81.0469 151.671 82.4947 152.07 83.9653L168.393 144.159H243.272L237.924 139.88H194.066L179.01 82.7703C178.742 81.7546 177.824 81.0469 176.773 81.0469Z" fill="#BCD3F9"/>
<path d="M174.277 85.8605C177.486 96.5575 182.299 118.7 182.299 119.556L187.648 115.812L179.09 83.1863C178.8 81.6131 178.474 81.0905 177.486 81.0469C174.063 81.9026 173.92 84.6125 174.277 85.8605Z" fill="url(#paint3_linear_534_8217)"/>
<path d="M165.185 189.086C168.18 156.567 197.454 148.794 211.716 148.972C227.762 148.972 247.872 154.749 261.992 152.181C279.642 148.972 286.595 140.415 292.478 128.648C297.185 119.235 295.153 104.402 293.548 98.1618C291.944 92.1002 288.307 76.6609 286.595 63.3967C284.884 50.1325 295.153 40.3982 300.501 37.1892C305.315 34.8715 317.402 30.8779 327.244 33.4452C337.085 36.0125 347.389 40.5765 351.312 42.5376C360.297 60.5085 362.431 86.7174 360.939 105.115C360.404 111.711 356.386 130.477 349.707 154.321C341.887 182.24 317.269 202.689 305.573 212.405L305.315 212.619C273.652 240.431 228.831 239.362 210.112 235.618C190.857 230.269 162.189 221.605 165.185 189.086Z" fill="url(#paint4_linear_534_8217)"/>
<path d="M215.46 302.473H212.251L224.553 224.386C225.087 222.246 226.157 221.177 227.762 221.711C229.791 222.388 230.079 224.564 229.901 225.99L215.46 302.473Z" fill="#C46673"/>
<path d="M323.942 302.473H327.151L302.52 203.258C301.985 201.118 300.915 200.049 299.311 200.584C297.281 201.26 296.993 203.436 297.171 204.862L323.942 302.473Z" fill="#C46673"/>
<path d="M217.065 129.183C215.46 129.718 210.112 134.531 208.507 139.345C209.577 140.415 212.251 136.671 215.46 136.671C218.313 137.027 224.553 137.74 226.692 137.74C228.832 137.74 230.436 136.314 230.971 135.601L238.994 133.996L236.319 128.648C233.752 129.932 230.258 130.609 228.832 130.787C225.836 129.504 218.669 128.648 217.065 129.183Z" fill="#924B56"/>
<path d="M278.572 115.277C280.355 108.502 283.814 91.9572 283.386 79.9766C283.386 73.5584 282.209 59.8663 277.502 56.4433C272.796 53.0203 267.875 58.5829 266.805 63.3964C266.24 65.9411 265.415 79.9768 268.41 92.8132C269.658 98.1616 268.731 104.58 267.875 108.858L235.249 128.113C236.854 130.252 237.924 133.461 238.458 135.066C264.131 130.252 275.185 119.734 278.572 115.277Z" fill="#C1D5FC"/>
<defs>
<linearGradient id="paint0_linear_534_8217" x1="255.574" y1="29.1665" x2="259.318" y2="47.3513" gradientUnits="userSpaceOnUse">
<stop stop-color="#752F3A"/>
<stop offset="1" stop-color="#984D59"/>
</linearGradient>
<linearGradient id="paint1_linear_534_8217" x1="286.06" y1="14.1904" x2="270.55" y2="17.3995" gradientUnits="userSpaceOnUse">
<stop stop-color="#351E79"/>
<stop offset="1" stop-color="#1E0B56"/>
</linearGradient>
<linearGradient id="paint2_linear_534_8217" x1="123.466" y1="65.0014" x2="276.433" y2="72.4893" gradientUnits="userSpaceOnUse">
<stop stop-color="#FFE0A4"/>
<stop offset="1" stop-color="#FBC464"/>
</linearGradient>
<linearGradient id="paint3_linear_534_8217" x1="176.416" y1="82.1166" x2="184.974" y2="115.277" gradientUnits="userSpaceOnUse">
<stop stop-color="#EEF4FF"/>
<stop offset="1" stop-color="#C4D9F8" stop-opacity="0"/>
</linearGradient>
<linearGradient id="paint4_linear_534_8217" x1="245.412" y1="135.601" x2="301.571" y2="224.386" gradientUnits="userSpaceOnUse">
<stop stop-color="#FFE0A4"/>
<stop offset="1" stop-color="#FBC464"/>
</linearGradient>
</defs>
</svg>
