<svg width="87" height="21" viewBox="0 0 87 21" fill="none" xmlns="http://www.w3.org/2000/svg">
<path fill-rule="evenodd" clip-rule="evenodd" d="M85.07 18.9824C85.1728 18.9824 85.2756 18.9824 85.3819 18.9824V19.7909C85.4957 19.8055 85.6109 19.8055 85.7247 19.7909C85.9921 19.5374 86.239 19.2633 86.5029 19.0098C86.6454 18.9943 86.789 18.9943 86.9315 19.0098C86.6195 19.3352 86.3007 19.6573 85.9818 19.9759C86.2869 20.3184 86.6126 20.6131 86.9212 20.9385C86.7785 20.9489 86.6353 20.9489 86.4927 20.9385C86.2218 20.6816 85.9716 20.4075 85.7042 20.1472H85.3922C85.3922 20.4178 85.3922 20.6884 85.3922 20.9591H85.0837C85.0837 20.315 85.0837 19.671 85.0837 19.0269L85.07 18.9824ZM82.8896 18.9824H83.2016V19.7874H84.3295C84.3295 19.5202 84.3295 19.253 84.3295 18.9824H84.6449C84.6449 19.623 84.6449 20.2602 84.6449 20.9008H84.326V20.106H83.1982V20.9042H82.8828C82.8828 20.2636 82.8828 19.6264 82.8828 18.9858L82.8896 18.9824ZM81.6384 19.3798C81.5218 19.6504 81.4018 19.9176 81.2955 20.1848H82.012C81.8921 19.9176 81.7755 19.6504 81.6487 19.3832L81.6384 19.3798ZM81.4704 18.9824H81.8132C82.0943 19.6264 82.3823 20.2671 82.6634 20.9111H82.3206C82.2554 20.7741 82.1937 20.6336 82.1286 20.4932H81.1344L80.9493 20.9111H80.6065C80.8876 20.2671 81.1733 19.6242 81.4635 18.9824H81.4704ZM79.1324 20.106C79.1324 20.2705 79.1324 20.4486 79.1324 20.6028H79.8009C79.9106 20.6028 80.0477 20.6028 80.1437 20.5206C80.172 20.4872 80.1912 20.447 80.1991 20.404C80.2071 20.361 80.2036 20.3166 80.189 20.2754C80.1744 20.2341 80.1493 20.1974 80.1161 20.1689C80.0828 20.1404 80.0427 20.1211 79.9997 20.1129C79.7152 20.1129 79.4306 20.1129 79.1461 20.1129L79.1324 20.106ZM78.817 18.9858H80.3185V19.301H79.1324V19.7909C79.4032 19.7909 79.6775 19.7909 79.9517 19.7909C80.0738 19.7936 80.1917 19.836 80.2875 19.9116C80.3833 19.9872 80.4519 20.092 80.4829 20.21C80.5139 20.328 80.5056 20.4529 80.4592 20.5658C80.4128 20.6787 80.331 20.7735 80.226 20.8357C80.1205 20.8913 80.0023 20.9185 79.8831 20.9145H78.8238C78.8238 20.2705 78.8238 19.6264 78.8238 18.9824L78.817 18.9858ZM76.3213 18.9858C76.4264 18.9858 76.5327 18.9858 76.6401 18.9858C76.8938 19.2976 77.1577 19.6025 77.4114 19.9108C77.6788 19.6093 77.9291 19.2976 78.1862 18.9858C78.2925 18.9858 78.3953 18.9858 78.5016 18.9858C78.5016 19.6299 78.5016 20.2739 78.5016 20.918H78.1862V19.5237C77.9257 19.8217 77.672 20.1266 77.4149 20.4281C77.1475 20.13 76.9041 19.8114 76.6332 19.5168C76.6332 19.9827 76.6332 20.4486 76.6332 20.9145H76.3179C76.3179 20.2705 76.3179 19.6264 76.3179 18.9824L76.3213 18.9858ZM72.0772 18.9858C72.1801 18.9858 72.2829 18.9858 72.3892 18.9858C72.3892 19.253 72.3892 19.5237 72.3892 19.7943C72.5032 19.8054 72.618 19.8054 72.732 19.7943C73.0028 19.5339 73.2599 19.2565 73.5273 18.9927H73.9421C73.6336 19.3352 73.3079 19.6367 72.996 19.969C73.3114 20.2842 73.6233 20.5994 73.9318 20.9214H73.517C73.2736 20.6782 73.0337 20.4315 72.7937 20.1883C72.7011 20.0649 72.5332 20.1334 72.4029 20.1163V20.9248H72.0909C72.0909 20.2773 72.0909 19.6333 72.0909 18.9892L72.0772 18.9858ZM70.3631 20.6028H71.1653C71.2156 20.6056 71.2655 20.593 71.3084 20.5667C71.3513 20.5404 71.3851 20.5015 71.4053 20.4555C71.4198 20.4196 71.4258 20.3808 71.4228 20.3422C71.4198 20.3035 71.4079 20.2661 71.3879 20.2329C71.368 20.1997 71.3406 20.1716 71.3079 20.1507C71.2752 20.1299 71.2381 20.117 71.1996 20.1129C70.9219 20.1129 70.6442 20.1129 70.3666 20.1129C70.3666 20.2773 70.3666 20.4555 70.3666 20.6062L70.3631 20.6028ZM70.3631 19.3078C70.3631 19.4723 70.3631 19.6333 70.3631 19.7977H71.1585C71.2039 19.8026 71.2498 19.7941 71.2906 19.7735C71.3313 19.7528 71.3652 19.7208 71.3882 19.6813C71.4091 19.6453 71.4206 19.6047 71.4217 19.5631C71.4227 19.5215 71.4132 19.4804 71.394 19.4435C71.3749 19.4065 71.3467 19.3751 71.3121 19.352C71.2775 19.3288 71.2376 19.3148 71.1962 19.3113C70.9151 19.3113 70.6374 19.3113 70.3597 19.3113L70.3631 19.3078ZM70.0546 18.9892H71.1619C71.2701 18.9873 71.3765 19.0163 71.4688 19.0728C71.5611 19.1292 71.6354 19.2107 71.683 19.3078C71.7325 19.4144 71.7482 19.5336 71.728 19.6493C71.7078 19.765 71.6526 19.8718 71.5698 19.9553C71.6504 20.0343 71.7053 20.1357 71.7274 20.2463C71.7495 20.3569 71.7378 20.4715 71.6938 20.5754C71.6498 20.6792 71.5755 20.7674 71.4806 20.8285C71.3858 20.8896 71.2747 20.9208 71.1619 20.918H70.0512C70.0512 20.2739 70.0512 19.6333 70.0512 18.9892H70.0546ZM74.734 19.2941C74.6104 19.3377 74.5011 19.4144 74.4183 19.5159C74.3354 19.6175 74.2822 19.7399 74.2644 19.8697C74.245 19.9948 74.2607 20.1229 74.3098 20.2397C74.3588 20.3565 74.4393 20.4574 74.5423 20.5313C74.6453 20.6051 74.7668 20.6489 74.8932 20.6579C75.0197 20.6669 75.1461 20.6407 75.2585 20.5822C75.3642 20.5338 75.4558 20.4594 75.5248 20.3659C75.5937 20.2724 75.6378 20.163 75.6528 20.0478C75.6701 19.9275 75.6551 19.8048 75.6093 19.6922C75.5635 19.5797 75.4886 19.4813 75.3923 19.4072C75.3002 19.3358 75.1921 19.2882 75.0773 19.2684C74.9625 19.2487 74.8446 19.2576 74.734 19.2941ZM74.7718 18.9241C74.5679 18.9621 74.3799 19.0599 74.2318 19.2049C74.0836 19.3499 73.982 19.5357 73.9398 19.7386C73.8976 19.9415 73.9167 20.1523 73.9947 20.3443C74.0727 20.5363 74.2061 20.7008 74.3779 20.8169C74.5497 20.933 74.7521 20.9954 74.9595 20.9962C75.1669 20.9969 75.3698 20.9361 75.5425 20.8213C75.7152 20.7066 75.8498 20.5431 75.9293 20.3517C76.0087 20.1602 76.0294 19.9496 75.9887 19.7463C75.9332 19.4778 75.7749 19.2415 75.5475 19.088C75.3202 18.9344 75.0418 18.8756 74.7718 18.9241ZM68.5359 19.2667C68.4041 19.304 68.2859 19.3784 68.1953 19.4811C68.1047 19.5838 68.0456 19.7103 68.0251 19.8457C68.0045 19.9778 68.0231 20.1132 68.0785 20.2349C68.1339 20.3567 68.2238 20.4595 68.3371 20.5308C68.4534 20.608 68.59 20.6492 68.7296 20.6492C68.8693 20.6492 69.0058 20.608 69.1221 20.5308C69.2304 20.456 69.3148 20.3516 69.3652 20.2301C69.4157 20.1086 69.4301 19.9751 69.4067 19.8457C69.3874 19.7517 69.3492 19.6627 69.2944 19.584C69.2396 19.5052 69.1693 19.4385 69.0878 19.3879C69.0063 19.3372 68.9153 19.3037 68.8205 19.2893C68.7256 19.275 68.6288 19.2801 68.5359 19.3044V19.2667ZM68.5359 18.9241C68.7838 18.886 69.0372 18.9397 69.2482 19.0752C69.4593 19.2106 69.6135 19.4185 69.6819 19.6597C69.7503 19.9009 69.7281 20.1587 69.6196 20.3847C69.511 20.6107 69.3236 20.7892 69.0925 20.8867C68.8614 20.9842 68.6026 20.994 68.3648 20.9141C68.127 20.8343 67.9267 20.6703 67.8014 20.4531C67.6761 20.236 67.6346 19.9805 67.6847 19.7349C67.7347 19.4893 67.8728 19.2704 68.0731 19.1194C68.2089 19.0171 68.3679 18.95 68.5359 18.9241ZM65.7865 19.7635C65.8217 19.5791 65.9054 19.4075 66.029 19.2663C66.1526 19.1251 66.3117 19.0194 66.4898 18.96C66.668 18.9007 66.8587 18.8899 67.0424 18.9287C67.2261 18.9676 67.3961 19.0547 67.5349 19.1811L67.2846 19.4243C67.1765 19.3352 67.0462 19.2771 66.9075 19.2564C66.7614 19.239 66.6135 19.2675 66.4844 19.3382C66.3554 19.4088 66.2516 19.518 66.1876 19.6504C66.119 19.7927 66.1016 19.9542 66.1385 20.1078C66.1753 20.2614 66.2641 20.3975 66.3899 20.4932C66.5163 20.5915 66.6719 20.6449 66.8321 20.6449C66.9923 20.6449 67.1479 20.5915 67.2744 20.4932L67.5177 20.7467C67.3779 20.8654 67.2101 20.9466 67.0302 20.9826C66.8502 21.0185 66.6641 21.0081 66.4893 20.9522C66.2487 20.8735 66.0447 20.7105 65.9149 20.4933C65.7851 20.2761 65.7383 20.0193 65.7831 19.7703L65.7865 19.7635ZM58.7554 9.36282C58.7554 10.2295 58.7554 11.0963 58.7554 11.963C60.5414 11.963 62.3309 11.963 64.117 11.963C64.4603 11.9366 64.7794 11.7763 65.0052 11.5166C65.231 11.257 65.3455 10.9189 65.3237 10.5755C65.2842 10.2747 65.1368 9.99841 64.9089 9.79789C64.6352 9.52651 64.2661 9.37283 63.8805 9.36967L58.7554 9.36282ZM58.7554 4.04944V6.64617H63.0577C63.3898 6.65195 63.7136 6.5417 63.973 6.33443C64.1507 6.19277 64.2876 6.00645 64.3695 5.79456C64.4514 5.58266 64.4755 5.35281 64.4393 5.12856C64.3756 4.85509 64.2316 4.60688 64.0258 4.41581C63.8199 4.22474 63.5616 4.09954 63.284 4.05629C62.9411 4.03573 62.5641 4.05629 62.2075 4.05629L58.7554 4.04944ZM54.6998 0.126923C57.4424 0.126923 60.1849 0.126923 62.9514 0.126923C63.2942 0.126923 63.6371 0.126926 63.9799 0.150906C65.2693 0.267005 66.4625 0.881602 67.3052 1.86379C67.7105 2.33628 68.015 2.88651 68.2 3.48076C68.4018 4.15274 68.4548 4.86057 68.3554 5.5551C68.2559 6.24962 68.0063 6.91417 67.624 7.50262C68.0435 7.83491 68.414 8.22473 68.7245 8.66053C69.1274 9.27645 69.3731 9.98168 69.44 10.7145C69.507 11.4473 69.3931 12.1853 69.1084 12.864C68.6663 13.9723 67.8265 14.8762 66.7533 15.399C66.0811 15.7146 65.3465 15.875 64.6038 15.8684H54.693V0.109798L54.6998 0.126923ZM0.00344849 0.126923H4.11725V1.79186C4.10634 2.1006 4.1178 2.40972 4.15153 2.71681C4.27706 3.65272 4.73884 4.51111 5.4508 5.13199C6.00518 5.6125 6.68474 5.92577 7.41037 6.03532C8.136 6.14487 8.87784 6.0462 9.54953 5.7508C10.2212 5.45539 10.7951 4.97539 11.2044 4.3667C11.6137 3.758 11.8416 3.04565 11.8615 2.31257C11.8615 1.58288 11.8615 0.853187 11.8615 0.126923H15.9753V1.83981C15.9747 3.24756 15.6022 4.63021 14.8954 5.84797C14.4091 6.67286 13.78 7.4048 13.0373 8.00963C14.0272 8.81649 14.812 9.84601 15.3273 11.014C15.7117 11.892 15.9346 12.832 15.9856 13.7889C16.0096 14.4912 15.9856 15.1901 15.9856 15.8923H11.8718V14.4946C11.8965 13.9985 11.8678 13.5012 11.7861 13.0113C11.5865 12.0785 11.0494 11.2523 10.2778 10.6909C9.5061 10.1295 8.55423 9.87263 7.60469 9.96943C6.65514 10.0662 5.77479 10.5099 5.13246 11.2154C4.49014 11.9209 4.13106 12.8386 4.12411 13.7923V15.8923H0.0103063C0.0274471 14.8646 -0.0548272 13.8129 0.140578 12.792C0.481202 10.9068 1.48563 9.20552 2.97224 7.99593C2.09111 7.28112 1.372 6.38739 0.862556 5.37394C0.353111 4.36048 0.0649514 3.25043 0.0171641 2.1173C2.32495e-05 1.44927 0.0171641 0.781246 0.0171641 0.116646L0.00344849 0.126923ZM78.5084 4.15564C77.6445 4.26949 76.844 4.67062 76.2359 5.29443C75.6279 5.91824 75.2476 6.72842 75.1564 7.59448C75.0652 8.46054 75.2684 9.33207 75.7332 10.0687C76.198 10.8053 76.8974 11.3642 77.7187 11.6553C78.54 11.9463 79.4355 11.9527 80.2609 11.6733C81.0863 11.3939 81.7935 10.845 82.2687 10.115C82.7439 9.38506 82.9594 8.51649 82.8805 7.64922C82.8016 6.78195 82.4329 5.96647 81.8338 5.33411C81.4115 4.88997 80.8902 4.55175 80.3123 4.34697C79.7345 4.14219 79.1164 4.07663 78.5084 4.15564ZM77.7028 0.106369C78.7786 -0.0703994 79.8792 -0.0255994 80.9371 0.238014C81.9949 0.501627 82.9877 0.97849 83.8545 1.63934C84.7212 2.3002 85.4437 3.1311 85.9776 4.08103C86.5114 5.03097 86.8453 6.07991 86.9589 7.16347C86.9977 7.56762 87.0126 7.97371 87.0034 8.37961C87.0034 10.8918 87.0034 13.395 87.0034 15.8889H82.9411V15.4778C83.8467 14.9253 84.5895 14.1428 85.0939 13.21C83.9776 14.5227 82.4655 15.4386 80.7845 15.8202C79.1034 16.2019 77.3438 16.0289 75.7693 15.3271C74.5148 14.7659 73.4257 13.8919 72.6065 12.789C71.7873 11.6861 71.2656 10.3912 71.0914 9.02878C70.9173 7.66633 71.0965 6.28202 71.6119 5.00871C72.1273 3.73541 72.9616 2.61588 74.0347 1.7576C75.0952 0.905572 76.3572 0.340481 77.6994 0.116646L77.7028 0.106369ZM42.9241 0.1372C43.8707 -0.0880476 44.8617 -0.0417324 45.7832 0.27081C46.8594 0.66224 47.8144 1.32836 48.5531 2.20294C49.4391 3.2454 50.1353 4.43503 50.61 5.71779C51.2121 7.29138 51.623 8.9315 51.8339 10.6029C52.0361 12.3573 52.122 14.1232 52.091 15.8889H47.9772C48.0173 13.9401 47.8876 11.9915 47.5898 10.0651C47.3755 8.83537 46.9985 7.63958 46.4688 6.50914C46.2079 5.95603 45.8748 5.43994 45.4781 4.97439C45.2155 4.66005 44.8785 4.41629 44.4976 4.26526C44.2049 4.16549 43.8852 4.18018 43.6029 4.30637C43.0889 4.57542 42.6559 4.97623 42.3481 5.46771C41.6984 6.47208 41.2178 7.57612 40.9255 8.7359C40.2878 11.0688 40.2398 13.5046 40.2398 15.9026H36.126C36.1008 14.1596 36.189 12.4168 36.39 10.6852C36.6009 8.93841 37.0293 7.22481 37.6653 5.58418C38.1728 4.24415 38.9275 3.01123 39.8902 1.94944C40.6985 1.06356 41.7463 0.430559 42.9069 0.126923L42.9241 0.1372ZM25.0976 4.15221C24.1894 4.26793 23.3512 4.70058 22.7312 5.37376C22.1111 6.04694 21.7489 6.91739 21.7086 7.83146C21.6682 8.74553 21.9523 9.64445 22.5107 10.3696C23.0691 11.0947 23.8659 11.5994 24.7604 11.7945C25.6549 11.9897 26.5897 11.8628 27.3997 11.4362C28.2097 11.0097 28.8429 10.3109 29.1875 9.46317C29.532 8.61548 29.5659 7.6734 29.283 6.80321C29.0001 5.93302 28.4186 5.19066 27.6413 4.70718C26.883 4.2342 25.9842 4.03811 25.0976 4.15221ZM24.628 0.0412787C25.7465 -0.0927295 26.8807 0.0105926 27.9565 0.344484C29.0323 0.678375 30.0256 1.23532 30.8713 1.97895C31.717 2.72258 32.3963 3.63616 32.8646 4.65999C33.3329 5.68382 33.5798 6.79487 33.5892 7.92056V15.8923H29.5165C29.5165 15.7519 29.5165 15.6114 29.5165 15.471C30.4358 14.9181 31.1834 14.1212 31.6763 13.1688C30.8334 14.1591 29.7615 14.9289 28.5535 15.4116C27.3455 15.8943 26.038 16.0752 24.7442 15.9386C23.4504 15.8021 22.2095 15.3522 21.1291 14.6281C20.0487 13.9039 19.1613 12.9273 18.544 11.7829C17.9267 10.6386 17.5981 9.36101 17.5866 8.06102C17.5751 6.76103 17.8811 5.47786 18.4781 4.32279C19.0751 3.16772 19.9451 2.17561 21.0126 1.43251C22.0801 0.689407 23.3128 0.217744 24.604 0.0584138L24.628 0.0412787Z" fill="#303030"/>
</svg>
