<svg width="288" height="180" viewBox="0 0 288 180" fill="none" xmlns="http://www.w3.org/2000/svg">
<path d="M173 11.2555L164.094 3.63965L155.814 6.2634L164.094 13.1943L173 11.2555Z" fill="#DE8436"/>
<path d="M113.635 11.2555L122.541 3.63965L130.814 6.2634L122.541 13.1943L113.635 11.2555Z" fill="#DE8436"/>
<path d="M164.094 16.3114L143.323 0L122.552 17.4724L98.1846 10.8317L115.59 35.1305C115.59 35.1305 143.236 25.0766 172.704 35.7109L188.432 10.6518L164.094 16.3114ZM115.3 28.8903L108.773 19.4402C109.393 19.0114 110.092 18.709 110.829 18.5503C111.566 18.3916 112.327 18.3797 113.068 18.5153C113.81 18.6508 114.518 18.9312 115.151 19.3404C115.784 19.7496 116.331 20.2796 116.759 20.9001C117.188 21.5206 117.49 22.2195 117.649 22.9568C117.807 23.6942 117.819 24.4556 117.684 25.1976C117.548 25.9395 117.268 26.6475 116.859 27.2811C116.45 27.9147 115.92 28.4615 115.3 28.8903ZM144.449 24.0027C143.239 24.2442 141.983 24.0899 140.868 23.5625C139.752 23.0352 138.836 22.1629 138.254 21.0744C137.672 19.9859 137.455 18.7391 137.636 17.518C137.817 16.297 138.386 15.1665 139.258 14.2937C140.131 13.4208 141.261 12.8519 142.481 12.671C143.701 12.49 144.948 12.7066 146.036 13.2888C147.123 13.871 147.995 14.7878 148.522 15.9039C149.05 17.02 149.204 18.2761 148.962 19.4866C148.739 20.601 148.192 21.6245 147.389 22.4282C146.585 23.2318 145.562 23.7796 144.449 24.0027ZM170.748 24.7341C170.632 23.6855 170.807 22.6252 171.254 21.6695C171.701 20.7138 172.402 19.8998 173.281 19.3168C174.16 18.7338 175.182 18.4044 176.236 18.3647C177.289 18.325 178.334 18.5766 179.254 19.0919L173.336 28.9252C172.62 28.4631 172.017 27.8471 171.569 27.1221C171.121 26.3971 170.841 25.5813 170.748 24.7341Z" fill="#F8B378"/>
<path d="M167.447 177.4C144.025 159.324 154.683 140.366 154.683 140.366C155.799 138.017 157.378 135.918 159.325 134.195C163.051 132.718 167.054 132.071 171.056 132.297C163.514 144.591 172.623 158 172.623 158C177.473 164.119 186.704 160.026 186.704 160.026C186.704 160.026 187.597 188.603 167.447 177.4Z" fill="url(#paint0_linear_504_88)"/>
<path d="M164.384 131.728C155.844 136.952 152.264 149.664 155.681 158.882C158.193 166.208 164.303 171.693 170.882 175.443C173.103 176.72 175.395 177.869 177.746 178.885C175.373 177.914 173.058 176.807 170.812 175.571C164.158 171.833 157.985 166.347 155.403 158.975C152.043 149.647 155.641 136.83 164.39 131.728H164.384Z" fill="#DE8E47"/>
<path d="M163.763 132.169C154.927 146.53 153.79 158.789 167.54 170.381C171.258 173.387 175.27 176.009 179.515 178.206C175.239 176.048 171.204 173.443 167.476 170.434C153.656 158.958 154.776 146.367 163.763 132.151V132.169Z" fill="#E29451"/>
<path d="M167.686 130.213C165.782 131.716 164.529 133.881 163.479 136.017C162.439 138.195 161.66 140.489 161.158 142.85C158.838 152.619 161.913 163.381 169.809 169.784C173.339 172.628 177.304 174.884 181.552 176.465C177.021 174.805 172.611 172.576 168.997 169.319C161.396 162.975 158.629 152.265 160.955 142.809C162.116 138.165 163.926 133.295 167.686 130.195V130.213Z" fill="#DE8E47"/>
<path d="M169.089 130.665C163.288 137.95 161.147 148.422 164.146 157.292C165.811 162.318 169.258 166.579 173.429 169.789C176.745 172.259 180.369 174.284 184.209 175.815C180.849 174.646 177.638 173.088 174.642 171.171C165.162 165.157 160.369 154.389 162.887 143.354C163.908 138.71 165.846 134.189 169.078 130.688L169.089 130.665Z" fill="#DE8E47"/>
<path d="M172.246 128.924C165.951 135.228 163.735 145.212 166.508 153.635C169.212 162.342 177.056 168.147 185.248 171.316C184.703 171.107 183.438 170.59 182.927 170.387C182.417 170.184 181.134 169.563 180.653 169.331L179.179 168.541C173.331 165.302 168.33 160.182 166.247 153.722C163.526 145.229 165.754 135.147 172.258 128.924H172.246Z" fill="#DE8E47"/>
<path d="M261.054 134.52C262.215 128.106 235.178 133.359 228.831 141.184C228.831 141.184 241.299 167.793 246.602 168.049C247.188 134.834 261.054 134.52 261.054 134.52Z" fill="url(#paint1_linear_504_88)"/>
<path d="M228.146 166.974C225.756 154.598 230.374 141.369 242.709 136.499C244.442 135.779 246.236 135.213 248.07 134.81C248.981 134.618 249.909 134.473 250.826 134.305C247.17 135.023 243.648 136.301 240.382 138.095C230.125 143.726 226.643 155.939 228.152 166.974H228.146Z" fill="#DE8E47"/>
<path d="M252.427 134.305C242.489 138.101 235.695 147.731 233.861 158.029C233.205 161.484 232.896 164.996 232.939 168.512C232.684 164.986 232.845 161.442 233.42 157.953C235.022 147.505 242.123 137.532 252.415 134.305H252.427Z" fill="#DE8E47"/>
<path d="M252.427 136.708C244.078 144.045 236.263 154.36 237.511 166.069C237.25 164.652 237.132 163.213 237.157 161.773C237.586 151.533 244.537 142.675 252.427 136.708Z" fill="#DE8E47"/>
<path d="M250.826 141.114C246.045 148.933 241.375 158.174 242.668 167.59C242.378 166.435 242.202 165.255 242.14 164.066C241.966 155.69 245.906 147.685 250.843 141.114H250.826Z" fill="#DE8E47"/>
<path d="M179.822 178.973C179.979 178.77 184.005 173.575 176.788 170.162C176.602 170.069 176.422 169.993 176.243 169.918C169.28 166.882 166.913 170.846 166.815 171.009C166.587 171.48 166.393 171.967 166.234 172.466C166.246 172.3 166.269 172.135 166.304 171.973C169.814 152.556 179.532 152.144 185.665 154.854C194.727 158.86 192.134 164.815 192.134 164.815C189.825 170.838 185.465 175.853 179.822 178.973Z" fill="url(#paint2_linear_504_88)"/>
<path d="M171.625 176.499C171.172 176.809 170.651 177.006 170.106 177.073C169.562 177.14 169.009 177.076 168.494 176.884C167.98 176.693 167.519 176.382 167.15 175.975C166.781 175.569 166.515 175.08 166.374 174.549C166.152 173.878 166.096 173.163 166.211 172.465C166.372 171.969 166.566 171.484 166.792 171.014C166.879 170.875 168.532 167.972 173.446 168.994C174.421 169.206 175.37 169.521 176.278 169.934C173.806 175.304 171.625 176.499 171.625 176.499Z" fill="url(#paint3_linear_504_88)"/>
<path d="M169.925 178.787C172.216 177.197 175.465 171.822 175.924 170.928C175.068 170.43 174.094 170.171 173.104 170.179C171.044 170.359 167.517 176.256 167.349 177.116C166.937 179.141 169.925 178.787 169.925 178.787Z" fill="url(#paint4_linear_504_88)"/>
<path d="M265.418 133.283C265.418 133.283 265.592 145.671 273.239 147.099L274.208 144.846L265.418 133.283Z" fill="url(#paint5_linear_504_88)"/>
<path d="M218.736 173.116C208.53 154.685 202.786 147.464 186.036 137.231C181.586 134.271 176.422 132.564 171.085 132.291C167.083 132.065 163.08 132.712 159.354 134.189L159.255 134.235C164.396 129.243 172.599 124.315 172.599 124.315C210.857 101.99 248.023 161.21 246.608 168.042C245.395 173.365 222.205 177.098 218.736 173.116Z" fill="url(#paint6_linear_504_88)"/>
<path d="M246.236 132.854C246.236 132.854 271.567 131.032 273.238 147.099C273.238 147.099 282.66 147.459 285.254 139.478C285.254 139.478 287.192 135.014 279.063 130.846C269.252 125.813 251.853 131.275 246.236 132.854Z" fill="url(#paint7_linear_504_88)"/>
<path d="M224.456 174.52C215.8 154.923 200.622 134.189 178.622 129.336C173.615 128.128 168.323 128.964 163.508 130.665C167.506 129.012 171.826 128.288 176.144 128.546C199.688 131.867 216.078 153.768 224.456 174.52Z" fill="#DE8E47"/>
<path d="M229.103 174.521C221.021 153.554 205.6 131.798 182.288 127.212C177.038 126.049 171.564 126.437 166.53 128.326C169.869 127.032 173.423 126.386 177.003 126.422C202.978 127.92 220.824 151.853 229.103 174.521Z" fill="#DE8E47"/>
<path d="M234.818 173.563C226.301 154.749 211.524 132.157 190.724 126.045C183.524 124.066 175.894 124.309 168.834 126.741C170.589 126.129 172.382 125.628 174.201 125.244C176.023 124.867 177.872 124.627 179.73 124.524C206.453 123.508 225.419 151.626 234.813 173.563H234.818Z" fill="#DE8E47"/>
<path d="M241.444 171.415C241.444 171.275 241.264 170.921 241.212 170.77C239.665 167.582 237.943 164.481 236.054 161.483C226.191 145.856 213.189 130.189 194.983 124.541C187.717 122.406 180 122.339 172.698 124.35C179.975 121.894 187.817 121.662 195.227 123.682C213.746 128.941 227.206 145.113 236.542 161.198C238.311 164.285 239.884 167.48 241.253 170.765L241.374 171.101C241.374 171.206 241.479 171.345 241.444 171.426V171.415Z" fill="#DE8E47"/>
<path d="M245.308 169.307C245.343 169.168 245.14 168.814 245.094 168.657C243.626 165.432 241.965 162.297 240.121 159.271C227.421 137.532 204.312 113.889 176.835 122.167C180.454 121.037 184.213 120.415 188.003 120.321C211.704 120.193 229.156 140.295 240.307 159.161C242.093 162.227 243.697 165.396 245.111 168.651L245.233 168.982C245.262 169.087 245.343 169.226 245.308 169.307Z" fill="#DE8E47"/>
<path d="M250.826 131.653C262.082 129.708 276.354 132.912 277.085 146.501C276.8 144.403 276.168 142.367 275.217 140.476C270.576 131.984 259.552 130.939 250.849 131.676L250.826 131.653Z" fill="#F39000"/>
<path d="M256.529 130.195C265.232 129.562 277.839 131.036 280.746 140.829C281.079 142.147 281.237 143.504 281.216 144.863C281.182 143.513 280.968 142.174 280.578 140.881C277.468 131.35 265.116 130.026 256.529 130.195Z" fill="#F39000"/>
<path d="M261.6 129.336C271.434 127.415 283.066 130.236 284.064 141.88C283.881 140.678 283.576 139.497 283.154 138.357C280.166 129.69 269.566 128.175 261.6 129.336Z" fill="#F39000"/>
<path d="M183.002 177.115C182.591 169.186 177.473 165.807 169.896 167.38C169.095 167.52 167.993 167.798 167.198 168.013C168.942 167.362 170.764 166.944 172.617 166.771C179.202 166.115 183.188 170.759 183.002 177.115Z" fill="#DE8E46"/>
<path d="M185.004 174.724C184.162 168.565 180.403 163.213 173.562 164.385C171.624 164.699 169.736 165.267 167.946 166.074C169.691 165.136 171.569 164.472 173.516 164.107C180.478 162.748 184.592 168.338 185.004 174.724Z" fill="#DE8E46"/>
<path d="M186.849 172.634C185.99 165.024 181.209 160.444 173.377 161.976C172.501 162.156 171.248 162.447 170.395 162.708L168.933 163.19C178.042 159.126 186.112 161.913 186.849 172.634Z" fill="#DE8E46"/>
<path d="M188.989 170.011C187.191 161.547 181.035 158.082 172.785 160.247C171.891 160.462 170.661 160.828 169.779 161.129C171.697 160.252 173.731 159.656 175.819 159.359C182.973 158.256 188.183 163.057 188.989 170.011Z" fill="#DE8E46"/>
<path d="M190.643 167.218C189.077 158.725 182.556 155.817 174.625 158.075C173.76 158.302 172.559 158.696 171.724 158.998C173.612 158.189 175.594 157.622 177.624 157.309C184.586 156.148 189.767 160.327 190.667 167.224L190.643 167.218Z" fill="#DE8E46"/>
<path d="M191.937 165.291C190.388 156.799 183.85 153.89 175.919 156.148C175.048 156.375 173.853 156.77 173.018 157.077C174.902 156.264 176.883 155.694 178.912 155.382C185.874 154.221 191.056 158.401 191.961 165.297L191.937 165.291Z" fill="#DE8E46"/>
<path d="M121.54 177.399C144.956 159.323 134.304 140.365 134.304 140.365C133.188 138.016 131.609 135.917 129.663 134.194C125.936 132.717 121.933 132.07 117.931 132.296C125.474 144.59 116.37 157.999 116.37 157.999C111.52 164.118 102.289 160.025 102.289 160.025C102.289 160.025 101.384 188.602 121.54 177.399Z" fill="url(#paint8_linear_504_88)"/>
<path d="M124.598 131.728C133.347 136.83 136.944 149.653 133.585 158.975C131.003 166.347 124.83 171.833 118.175 175.571C115.929 176.807 113.615 177.914 111.242 178.885C113.595 177.873 115.887 176.723 118.106 175.443C124.685 171.693 130.794 166.208 133.312 158.882C136.718 149.658 133.138 136.94 124.61 131.728H124.598Z" fill="#DE8E47"/>
<path d="M125.219 132.169C134.217 146.402 135.32 158.981 121.505 170.451C117.78 173.455 113.747 176.055 109.472 178.206C113.716 176.002 117.726 173.374 121.442 170.364C135.204 158.755 134.043 146.495 125.219 132.151V132.169Z" fill="#E29451"/>
<path d="M121.326 130.213C125.091 133.313 126.924 138.212 128.056 142.827C130.377 152.283 127.615 162.992 120.02 169.337C116.4 172.593 111.991 174.822 107.465 176.483C111.717 174.902 115.686 172.646 119.22 169.801C127.116 163.416 130.179 152.637 127.87 142.867C127.372 140.505 126.593 138.212 125.549 136.035C124.505 133.882 123.229 131.716 121.343 130.23L121.326 130.213Z" fill="#DE8E47"/>
<path d="M119.893 130.665C123.124 134.148 125.062 138.71 126.083 143.331C128.601 154.36 123.809 165.134 114.329 171.147C111.332 173.064 108.121 174.623 104.761 175.791C108.596 174.271 112.215 172.253 115.524 169.789C119.707 166.602 123.159 162.318 124.807 157.292C127.801 148.416 125.683 137.95 119.858 130.665H119.893Z" fill="#DE8E47"/>
<path d="M116.736 128.924C123.246 135.118 125.439 145.229 122.747 153.722C120.67 160.182 115.663 165.302 109.815 168.541C108.765 169.122 107.169 169.894 106.067 170.387C105.533 170.608 104.274 171.095 103.746 171.316C111.938 168.135 119.788 162.313 122.486 153.635C125.259 145.212 123.066 135.228 116.748 128.924H116.736Z" fill="#DE8E47"/>
<path d="M27.9161 134.519C26.7558 128.105 53.7924 133.358 60.1396 141.183C60.1396 141.183 47.6714 167.792 42.3744 168.048C41.7942 134.833 27.9161 134.519 27.9161 134.519Z" fill="url(#paint9_linear_504_88)"/>
<path d="M60.8358 166.974C62.3442 155.945 58.8689 143.755 48.6055 138.095C45.3401 136.301 41.8175 135.023 38.1621 134.305C39.0788 134.473 40.0071 134.618 40.9238 134.81C43.2162 135.316 45.446 136.073 47.5727 137.068C59.014 142.292 63.1333 155.213 60.8416 166.974H60.8358Z" fill="#DE8E47"/>
<path d="M36.5549 134.305C46.859 137.532 53.9604 147.511 55.5501 157.953C56.125 161.442 56.2867 164.986 56.0317 168.512C56.0761 164.996 55.769 161.484 55.115 158.029C53.2874 147.731 46.4935 138.101 36.5491 134.305H36.5549Z" fill="#DE8E47"/>
<path d="M36.5549 136.708C44.4455 142.675 51.3961 151.533 51.8254 161.773C51.8503 163.213 51.7318 164.652 51.4715 166.069C52.7189 154.36 44.9038 144.045 36.5549 136.708Z" fill="#DE8E47"/>
<path d="M38.1562 141.114C43.082 147.685 47.0157 155.69 46.859 164.066C46.7931 165.255 46.6144 166.435 46.3253 167.59C47.6191 158.174 42.9486 148.933 38.1679 141.114H38.1562Z" fill="#DE8E47"/>
<path d="M109.142 178.973C108.986 178.77 104.959 173.575 112.177 170.162C112.362 170.069 112.542 169.993 112.722 169.918C119.684 166.882 122.057 170.846 122.156 171.009C122.381 171.481 122.575 171.968 122.736 172.466C122.723 172.301 122.702 172.136 122.672 171.973C119.156 152.556 109.438 152.144 103.311 154.854C94.2431 158.86 96.8365 164.815 96.8365 164.815C99.1435 170.838 103.502 175.851 109.142 178.973Z" fill="url(#paint10_linear_504_88)"/>
<path d="M117.357 176.499C117.81 176.809 118.331 177.006 118.875 177.073C119.42 177.14 119.973 177.076 120.487 176.884C121.002 176.693 121.463 176.382 121.832 175.975C122.201 175.569 122.467 175.08 122.608 174.549C122.83 173.878 122.885 173.163 122.77 172.465C122.61 171.969 122.416 171.484 122.19 171.014C122.103 170.875 120.45 167.972 115.535 168.994C114.563 169.207 113.616 169.522 112.71 169.934C115.176 175.304 117.357 176.499 117.357 176.499Z" fill="url(#paint11_linear_504_88)"/>
<path d="M119.057 178.786C116.771 177.196 113.516 171.821 113.058 170.927C113.915 170.428 114.891 170.169 115.883 170.178C117.937 170.358 121.464 176.256 121.639 177.115C122.045 179.141 119.057 178.786 119.057 178.786Z" fill="url(#paint12_linear_504_88)"/>
<path d="M23.564 133.283C23.564 133.283 23.39 145.7 15.7315 147.099L14.7568 144.846L23.564 133.283Z" fill="url(#paint13_linear_504_88)"/>
<path d="M70.2691 173.116C80.4745 154.685 86.2184 147.464 102.974 137.231C107.422 134.271 112.585 132.564 117.92 132.291C121.921 132.065 125.924 132.712 129.651 134.189L129.75 134.235C124.609 129.243 116.405 124.315 116.405 124.315C78.148 101.99 40.9813 161.21 42.4028 168.042C43.5806 173.365 66.788 177.098 70.2691 173.116Z" fill="url(#paint14_linear_504_88)"/>
<path d="M42.7512 132.853C42.7512 132.853 17.4203 131.031 15.732 147.098C15.732 147.098 6.30396 147.458 3.71054 139.477C3.71054 139.477 1.77852 135.013 9.90111 130.845C19.7295 125.812 37.1292 131.274 42.7512 132.853Z" fill="url(#paint15_linear_504_88)"/>
<path d="M64.5256 174.52C72.6482 153.803 91.3244 129.284 115.431 128.494C118.879 128.63 122.277 129.365 125.474 130.665C120.659 128.964 115.367 128.128 110.36 129.336C88.3539 134.194 73.1878 154.917 64.5256 174.52Z" fill="#DE8E47"/>
<path d="M59.8779 174.521C68.1514 151.882 85.9863 127.92 111.979 126.422C115.559 126.386 119.113 127.032 122.451 128.326C117.419 126.436 111.947 126.049 106.699 127.212C83.3812 131.798 67.9657 153.554 59.8779 174.521Z" fill="#DE8E47"/>
<path d="M54.1631 173.562C63.5737 151.609 82.482 123.531 109.246 124.524C111.104 124.627 112.952 124.867 114.775 125.243C116.594 125.628 118.387 126.128 120.142 126.741C113.084 124.309 105.456 124.066 98.2572 126.044C77.4576 132.157 62.686 154.732 54.1631 173.562Z" fill="#DE8E47"/>
<path d="M47.5208 171.415C47.4802 171.281 47.6658 170.91 47.7065 170.753C49.0747 167.467 50.6502 164.272 52.4234 161.187C61.7585 145.107 75.213 128.93 93.7325 123.67C101.142 121.65 108.984 121.882 116.261 124.338C108.959 122.328 101.242 122.394 93.9762 124.529C75.77 130.178 62.7507 145.845 52.9049 161.471C51.0158 164.469 49.2939 167.57 47.7471 170.759L47.6078 171.084C47.573 171.188 47.4918 171.322 47.5208 171.403V171.415Z" fill="#DE8E47"/>
<path d="M43.6734 169.307C43.6328 169.168 43.8301 168.808 43.8765 168.651C45.2854 165.394 46.8896 162.225 48.6804 159.161C59.8258 140.295 77.2836 120.193 100.978 120.321C104.769 120.415 108.528 121.037 112.147 122.167C104.863 120.019 97.1185 119.985 89.8156 122.068C69.8398 128.198 55.7877 146.564 46.0696 164.205C45.298 165.662 44.5437 167.142 43.8881 168.657L43.7547 168.988C43.7547 169.087 43.6444 169.226 43.6734 169.307Z" fill="#DE8E47"/>
<path d="M38.1562 131.652C29.4534 130.915 18.4299 131.959 13.7884 140.452C12.8337 142.35 12.2041 144.394 11.926 146.5C12.0531 143.619 12.9683 140.828 14.5717 138.432C19.7933 131.187 29.9988 130.375 38.1562 131.652Z" fill="#F39000"/>
<path d="M32.4699 130.195C23.8541 130.027 11.5136 131.35 8.42122 140.882C8.03294 142.175 7.82023 143.514 7.78881 144.864C7.76334 143.504 7.91944 142.147 8.25296 140.829C11.1539 131.031 23.7671 129.562 32.4699 130.195Z" fill="#F39000"/>
<path d="M27.3876 129.336C19.4158 128.175 8.82164 129.69 5.82788 138.362C5.40443 139.501 5.09919 140.679 4.91699 141.88C5.93232 130.236 17.5534 127.415 27.3876 129.336Z" fill="#F39000"/>
<path d="M105.98 177.115C105.794 170.73 109.78 166.121 116.365 166.771C118.218 166.944 120.041 167.362 121.784 168.013C120.45 167.641 119.093 167.354 117.723 167.154C110.633 166.144 106.311 170.057 105.98 177.115Z" fill="#DE8E46"/>
<path d="M103.979 174.724C104.396 168.338 108.498 162.748 115.466 164.107C117.414 164.473 119.295 165.137 121.042 166.074C119.25 165.268 117.359 164.7 115.42 164.385C108.579 163.224 104.82 168.571 103.979 174.724Z" fill="#DE8E46"/>
<path d="M102.133 172.634C102.875 161.901 110.952 159.12 120.049 163.189L118.587 162.708C117.746 162.446 116.481 162.156 115.605 161.976C107.772 160.421 102.991 165.029 102.133 172.634Z" fill="#DE8E46"/>
<path d="M99.9924 170.01C100.799 163.044 106.009 158.255 113.168 159.358C115.256 159.656 117.29 160.253 119.208 161.129C117.724 160.627 116.208 160.224 114.671 159.921C106.96 158.424 101.571 162.441 99.9924 170.01Z" fill="#DE8E46"/>
<path d="M98.3389 167.218C99.244 160.317 104.437 156.189 111.387 157.304C113.41 157.62 115.384 158.19 117.265 158.999C115.824 158.476 114.351 158.05 112.855 157.722C105.394 156.091 99.6907 159.603 98.3505 167.218H98.3389Z" fill="#DE8E46"/>
<path d="M97.0508 165.291C97.9501 158.389 103.149 154.262 110.093 155.376C112.122 155.688 114.103 156.258 115.988 157.071C114.549 156.546 113.076 156.119 111.579 155.794C104.117 154.157 98.4142 157.669 97.074 165.291H97.0508Z" fill="#DE8E46"/>
<path d="M38.0488 59.5508L38.8669 49.2764H39.9054L42.6091 55.3133L43.1022 56.5672C43.2763 56.0854 43.4387 55.6616 43.6012 55.3133L46.3049 49.2764H47.3376L48.1557 59.5508H47.1809L46.6008 52.3587L46.5718 50.9249C46.4167 51.4118 46.2366 51.8904 46.0322 52.3587L43.6012 57.6352H42.6497L40.2419 52.3587L39.6617 50.8959C39.6617 51.4764 39.6617 51.993 39.6617 52.3587L39.0816 59.5508H38.0488Z" fill="#1D1D1B"/>
<path d="M52.1992 59.5508V49.2764H58.0011V50.1819H53.2087V53.926H57.1076V54.8315H53.2087V58.6278H58.2448V59.5334L52.1992 59.5508Z" fill="#1D1D1B"/>
<path d="M61.8362 59.5508V49.2764H67.638V50.1819H62.8283V53.5429H65.2825C66.0885 53.5098 66.8754 53.7931 67.4756 54.3323C67.9242 54.7472 68.2361 55.2888 68.3698 55.8852C68.5035 56.4816 68.4527 57.1046 68.2242 57.6715C67.9956 58.2383 67.6002 58.7222 67.0903 59.0589C66.5805 59.3956 65.9803 59.5692 65.3695 59.5566L61.8362 59.5508ZM62.8457 58.6452H65.2419C65.5197 58.6685 65.7993 58.6305 66.0609 58.534C66.3225 58.4375 66.5598 58.2849 66.7562 58.0868C66.9525 57.8887 67.103 57.65 67.1973 57.3875C67.2915 57.1249 67.3271 56.8449 67.3015 56.5671C67.3235 56.2873 67.2854 56.006 67.1897 55.7421C67.094 55.4782 66.943 55.2378 66.7468 55.0372C66.5506 54.8365 66.3138 54.6801 66.0522 54.5786C65.7907 54.477 65.5104 54.4326 65.2303 54.4484H62.8457V58.6452Z" fill="#1D1D1B"/>
<path d="M71.9717 59.5508V49.2764H77.7445V50.1819H72.9812V53.926H76.8801V54.8315H72.9812V58.6278H78.023V59.5334L71.9717 59.5508Z" fill="#1D1D1B"/>
<path d="M80.2976 58.7149C82.1252 58.4711 82.7402 56.0447 82.7402 51.3487V49.2764H88.3738V59.5508H87.3527V50.1819H83.7149V51.3429C83.7274 52.4592 83.679 53.5754 83.5699 54.6864C83.4845 55.545 83.3135 56.3928 83.0593 57.2173C82.5777 58.7381 81.6552 59.5392 80.2976 59.6437V58.7149Z" fill="#1D1D1B"/>
<path d="M92.7717 59.5508V49.2764H93.7754V53.4036H96.0962C96.9044 53.3692 97.6933 53.6573 98.2893 54.2046C98.5837 54.5038 98.8122 54.8614 98.9601 55.2543C99.1079 55.6472 99.172 56.0667 99.148 56.4859C99.1684 56.8908 99.1052 57.2957 98.9625 57.6751C98.8197 58.0546 98.6005 58.4007 98.3183 58.6917C98.0378 58.9689 97.7039 59.1859 97.3368 59.3296C96.9697 59.4733 96.5772 59.5407 96.1832 59.5276L92.7717 59.5508ZM93.7754 58.6453H96.0556C97.3436 58.6453 98.1152 57.8558 98.1152 56.5091C98.1421 56.2255 98.1078 55.9394 98.0147 55.6702C97.9215 55.4009 97.7717 55.1548 97.5754 54.9485C97.3791 54.7421 97.1407 54.5803 96.8766 54.474C96.6124 54.3678 96.3284 54.3194 96.044 54.3323H93.7754V58.6453Z" fill="#1D1D1B"/>
<path d="M102.629 59.5508V49.2764H103.639V53.984H109.58V49.2764H110.601V59.5508H109.58V54.8606H103.639V59.5508H102.629Z" fill="#1D1D1B"/>
<path d="M113.804 59.5508L117.575 49.2764H118.654L122.425 59.5508H121.358L120.186 56.3059H116.066L114.906 59.5798L113.804 59.5508ZM116.345 55.4004H119.867L118.55 51.6621L118.155 50.3154H118.126C117.975 50.8959 117.848 51.3371 117.732 51.6621L116.345 55.4004Z" fill="#1D1D1B"/>
<path d="M124.624 59.5507L127.061 55.4874L127.339 55.0636C126.71 54.8966 126.158 54.5155 125.779 53.9859C125.4 53.4563 125.217 52.8111 125.262 52.1613C125.237 51.6288 125.368 51.1007 125.638 50.6411C125.908 50.1815 126.305 49.8102 126.782 49.5723C127.385 49.3524 128.026 49.2538 128.668 49.2821H131.679V59.5565H130.629V55.2262H128.354L125.767 59.5507H124.624ZM130.652 54.3264V50.1818H128.726C128.253 50.1509 127.779 50.2262 127.339 50.4024C127.02 50.5644 126.754 50.8146 126.573 51.1233C126.392 51.432 126.304 51.7862 126.318 52.1438C126.287 52.4221 126.315 52.7039 126.401 52.9704C126.487 53.2369 126.629 53.4819 126.818 53.689C127.006 53.8962 127.236 54.0607 127.493 54.1716C127.75 54.2826 128.028 54.3373 128.308 54.3322L130.652 54.3264Z" fill="#1D1D1B"/>
<path d="M140.788 59.5508L141.606 49.2764H142.645L145.348 55.3133L145.842 56.5672H145.871C146.045 56.0854 146.207 55.6616 146.369 55.3133L149.073 49.2764H150.106L150.924 59.5508H149.92L149.34 52.3587L149.311 50.9249C149.156 51.4118 148.976 51.8904 148.771 52.3587L146.346 57.6352H145.412L143.004 52.3587L142.424 50.8959H142.395C142.411 51.3837 142.402 51.872 142.366 52.3587L141.786 59.5508H140.788Z" fill="#1D1D1B"/>
<path d="M153.772 59.5508L157.538 49.2764H158.623L162.388 59.5508H161.321L160.16 56.2769H156.024L154.863 59.5508H153.772ZM156.314 55.4004H159.835L158.478 51.6621L158.083 50.3154C157.938 50.8959 157.805 51.3371 157.689 51.6621L156.314 55.4004Z" fill="#1D1D1B"/>
<path d="M166.142 50.6062C166.62 50.1101 167.198 49.7199 167.836 49.461C168.475 49.202 169.161 49.0799 169.849 49.1027C170.525 49.0672 171.202 49.1665 171.839 49.3947C172.477 49.6229 173.062 49.9755 173.563 50.432L173.023 51.175C172.135 50.449 171.025 50.0512 169.878 50.0489C169.321 50.0302 168.765 50.1303 168.249 50.3424C167.733 50.5546 167.268 50.874 166.885 51.2795C166.109 52.1033 165.692 53.2015 165.724 54.3328C165.693 55.4953 166.108 56.6256 166.885 57.4906C167.264 57.9131 167.731 58.247 168.253 58.4687C168.776 58.6904 169.34 58.7944 169.907 58.7735C170.524 58.7825 171.135 58.6668 171.705 58.4334C172.276 58.2 172.793 57.8536 173.226 57.4152L173.806 58.1349C173.293 58.6513 172.68 59.0583 172.005 59.3316C171.33 59.605 170.606 59.7389 169.878 59.7255C169.18 59.7504 168.484 59.6267 167.837 59.3625C167.19 59.0983 166.606 58.6997 166.125 58.193C165.158 57.1511 164.639 55.7711 164.68 54.3502C164.66 53.66 164.78 52.9728 165.031 52.3296C165.282 51.6863 165.66 51.1003 166.142 50.6062Z" fill="#1D1D1B"/>
<path d="M179.765 59.5508V50.1819H176.087V49.2764H184.471V50.1819H180.775V59.5508H179.765Z" fill="#1D1D1B"/>
<path d="M187.655 59.5508V49.2764H193.422V50.1819H188.647V53.926H192.552V54.8315H188.647V58.6278H193.689V59.5334L187.655 59.5508Z" fill="#1D1D1B"/>
<path d="M197.292 59.5515V49.277H200.831C201.255 49.2569 201.678 49.3215 202.077 49.467C202.475 49.6125 202.841 49.836 203.152 50.1245C203.45 50.4159 203.684 50.7673 203.837 51.1555C203.99 51.5437 204.059 51.9599 204.039 52.3768C204.06 52.7972 203.991 53.2172 203.838 53.6094C203.686 54.0015 203.451 54.3569 203.152 54.6523C202.842 54.9444 202.478 55.1715 202.079 55.3201C201.68 55.4686 201.256 55.5357 200.831 55.5172H198.29V59.5805L197.292 59.5515ZM198.301 54.6116H200.709C201.01 54.6376 201.314 54.5979 201.598 54.4952C201.882 54.3925 202.141 54.2293 202.356 54.0168C202.571 53.8043 202.738 53.5476 202.844 53.2645C202.95 52.9813 202.994 52.6784 202.972 52.3768C202.994 52.0786 202.95 51.7792 202.844 51.4996C202.738 51.22 202.572 50.9669 202.359 50.758C202.145 50.5491 201.888 50.3893 201.606 50.29C201.324 50.1906 201.024 50.1539 200.727 50.1826H198.301V54.6116Z" fill="#1D1D1B"/>
<path d="M208.228 50.6064C208.708 50.1095 209.286 49.7189 209.925 49.4599C210.565 49.201 211.252 49.0793 211.942 49.1029C212.617 49.0669 213.292 49.1659 213.929 49.3942C214.566 49.6224 215.15 49.9753 215.649 50.4322L215.109 51.1752C214.225 50.4483 213.115 50.0504 211.971 50.0491C211.409 50.0259 210.849 50.1238 210.328 50.3361C209.808 50.5485 209.339 50.8703 208.954 51.2797C208.178 52.1035 207.761 53.2017 207.793 54.333C207.764 55.495 208.179 56.6242 208.954 57.4908C209.333 57.9127 209.801 58.2461 210.323 58.4678C210.845 58.6894 211.409 58.7938 211.976 58.7737C212.599 58.7882 213.219 58.6753 213.796 58.4417C214.374 58.2081 214.898 57.8588 215.336 57.4154L215.916 58.1352C215.401 58.6514 214.787 59.0583 214.111 59.3316C213.435 59.6049 212.711 59.7389 211.982 59.7257C211.284 59.7502 210.588 59.6263 209.941 59.3622C209.294 59.098 208.71 58.6996 208.228 58.1932C207.262 57.1513 206.743 55.7713 206.784 54.3504C206.762 53.6614 206.878 52.9749 207.126 52.3318C207.375 51.6886 207.749 51.1019 208.228 50.6064Z" fill="#1D1D1B"/>
<path d="M219.396 59.5508V49.2764H220.406V53.7344H222.147L224.92 49.2764H226.08L222.999 54.1292L226.283 59.5218H225.123L222.176 54.611H220.435V59.5218L219.396 59.5508Z" fill="#1D1D1B"/>
<path d="M228.338 59.5508L232.109 49.2764H233.188L236.959 59.5508H235.892L234.732 56.2769H230.601L229.44 59.5508H228.338ZM230.879 55.4004H234.401L233.061 51.6621L232.666 50.3154H232.637C232.486 50.8959 232.359 51.3371 232.243 51.6621L230.879 55.4004Z" fill="#1D1D1B"/>
<path d="M239.124 59.5507L241.561 55.4874L241.839 55.0636C241.21 54.8966 240.658 54.5155 240.279 53.9859C239.9 53.4563 239.718 52.8111 239.762 52.1613C239.738 51.6288 239.868 51.1007 240.138 50.6411C240.408 50.1815 240.806 49.8102 241.282 49.5723C241.886 49.3524 242.526 49.2538 243.168 49.2821H246.179V59.5565H245.152V55.2262H242.878L240.284 59.5507H239.124ZM245.152 54.3264V50.1818H243.226C242.753 50.1509 242.279 50.2262 241.839 50.4024C241.52 50.5644 241.255 50.8146 241.074 51.1233C240.892 51.432 240.804 51.7862 240.818 52.1438C240.79 52.4223 240.822 52.7036 240.911 52.9689C241 53.2342 241.144 53.4774 241.335 53.6824C241.525 53.8873 241.758 54.0492 242.016 54.1572C242.274 54.2653 242.552 54.3171 242.831 54.309L245.152 54.3264Z" fill="#1D1D1B"/>
<path d="M0.197217 104.782C0.0624628 104.581 -0.00649232 104.344 -4.63013e-05 104.103C-4.63013e-05 103.661 0.115991 103.4 0.261038 103.313C0.525136 103.203 0.811394 103.158 1.09651 103.18C1.75708 103.238 2.41909 103.085 2.98791 102.744C3.37713 102.465 3.64977 102.051 3.75376 101.583C3.8697 100.998 3.9357 100.404 3.95102 99.807V82.4276C3.9357 81.8309 3.8697 81.2367 3.75376 80.6513C3.64977 80.1833 3.37713 79.77 2.98791 79.4903C2.42341 79.1424 1.76344 78.9819 1.10231 79.0318H0.835422C0.618347 79.0539 0.400445 78.9984 0.220424 78.875C0.0623299 78.652 -0.0154011 78.3818 -4.63013e-05 78.1088C-0.00649232 77.8674 0.0624628 77.63 0.197217 77.4297C0.262316 77.3374 0.349576 77.2629 0.450965 77.2132C0.552353 77.1635 0.664611 77.1401 0.777403 77.1452C2.6456 77.2304 4.36875 77.2729 5.94686 77.2729H23.0043C24.7255 77.2729 26.5357 77.2304 28.4349 77.1452C28.5477 77.1401 28.6599 77.1635 28.7613 77.2132C28.8627 77.2629 28.95 77.3374 29.0151 77.4297C29.1498 77.63 29.2188 77.8674 29.2123 78.1088C29.2123 78.5442 29.0847 78.8112 28.928 78.8983C28.6572 79.0058 28.3658 79.0514 28.0752 79.0318C27.4139 78.9811 26.7537 79.1417 26.1895 79.4903C25.7971 79.7668 25.5235 80.1815 25.4237 80.6513C25.3049 81.2363 25.2389 81.8308 25.2264 82.4276V99.8419C25.2389 100.439 25.3049 101.033 25.4237 101.618C25.5329 102.076 25.8078 102.477 26.1953 102.744C26.7595 103.093 27.4198 103.253 28.081 103.203H28.342C28.5644 103.184 28.7867 103.239 28.9744 103.36C29.1491 103.575 29.2362 103.849 29.2181 104.126C29.2246 104.367 29.1556 104.605 29.0209 104.805C28.9558 104.897 28.8685 104.972 28.7671 105.021C28.6657 105.071 28.5535 105.094 28.4407 105.089C26.5725 105 24.7468 104.956 22.9637 104.956C21.3856 104.956 19.6509 105.002 17.742 105.089C17.629 105.096 17.5162 105.073 17.4145 105.024C17.3128 104.974 17.2258 104.898 17.1619 104.805C17.0271 104.605 16.9581 104.367 16.9646 104.126C16.9646 103.685 17.0864 103.423 17.2489 103.336C17.5038 103.23 17.7798 103.184 18.0553 103.203C18.7165 103.253 19.3764 103.092 19.9409 102.744C20.3317 102.463 20.6094 102.051 20.7242 101.583C20.8606 100.993 20.9345 100.39 20.9447 99.7838V79.0318H11.1105C10.4154 78.9495 9.71184 79.0854 9.09727 79.4207C8.91103 79.5424 8.75094 79.7 8.62641 79.8845C8.50187 80.0689 8.41539 80.2763 8.37204 80.4946C8.28736 81.1275 8.25051 81.7659 8.2618 82.4043V99.8186C8.27713 100.415 8.34312 101.009 8.45907 101.595C8.5635 102.064 8.83851 102.478 9.23071 102.756C9.79279 103.104 10.4511 103.265 11.1105 103.214H11.3774C11.5926 103.193 11.8084 103.249 11.9866 103.371C12.1434 103.595 12.2211 103.865 12.2071 104.137C12.2135 104.379 12.1446 104.616 12.0098 104.817C11.9447 104.909 11.8574 104.983 11.7561 105.033C11.6547 105.083 11.5424 105.106 11.4296 105.101C9.53434 105.012 7.72416 104.967 5.99908 104.967C4.42097 104.967 2.68041 105.012 0.777403 105.101C0.661393 105.102 0.547009 105.074 0.445352 105.018C0.343696 104.962 0.258219 104.88 0.197217 104.782Z" fill="#1D1D1B"/>
<path d="M33.5405 104.781C33.4057 104.581 33.3367 104.344 33.3432 104.102C33.3432 103.661 33.4592 103.4 33.6043 103.313C33.8682 103.203 34.1546 103.157 34.4397 103.179C35.0991 103.23 35.7575 103.069 36.3195 102.721C36.7117 102.443 36.9868 102.029 37.0912 101.56C37.2042 100.974 37.2702 100.38 37.2885 99.7836V82.4273C37.2702 81.8309 37.2042 81.2369 37.0912 80.6511C36.9868 80.1817 36.7117 79.768 36.3195 79.4901C35.7575 79.1415 35.0991 78.9809 34.4397 79.0315H34.1729C33.9674 79.046 33.763 78.9908 33.5927 78.8748C33.4708 78.7761 33.4012 78.5149 33.3722 78.1086C33.3658 77.8672 33.4347 77.6298 33.5695 77.4294C33.6278 77.3387 33.7088 77.2648 33.8045 77.2149C33.9001 77.165 34.0071 77.1409 34.1148 77.145C36.0488 77.2301 37.7893 77.2727 39.3365 77.2727H53.0579C53.8179 77.2727 54.2183 77.6268 54.2183 78.3292L54.3517 84.4648C54.35 84.5962 54.3123 84.7247 54.2427 84.8363C54.1732 84.9478 54.0744 85.0382 53.9572 85.0975C53.7224 85.2515 53.4488 85.336 53.1681 85.3413C52.8512 85.3493 52.537 85.2816 52.2514 85.1439C52.1336 85.0942 52.0309 85.0145 51.9535 84.9126C51.8762 84.8107 51.8268 84.6904 51.8105 84.5635C51.6502 83.4423 51.386 82.3386 51.0214 81.2664C50.7988 80.5944 50.3679 80.0109 49.7915 79.6004C49.087 79.1944 48.2832 78.9933 47.4707 79.0199H41.6224V90.1535H49.5536C49.6533 90.1674 49.7485 90.2039 49.8319 90.2603C49.9154 90.3166 49.9849 90.3913 50.0351 90.4785C50.1551 90.6844 50.2153 90.9195 50.2092 91.1577C50.2146 91.3757 50.1539 91.5902 50.0351 91.773C49.9826 91.8528 49.9111 91.9185 49.8271 91.964C49.7431 92.0096 49.6491 92.0337 49.5536 92.0342H41.6224V100.323C41.6633 100.817 41.737 101.308 41.8429 101.792C41.9692 102.209 42.252 102.56 42.632 102.773C43.2629 103.11 43.981 103.247 44.6916 103.168H48.7181C49.5203 103.188 50.3158 103.017 51.0389 102.669C51.5943 102.336 52.0354 101.842 52.3037 101.252C52.7444 100.229 53.1128 99.1754 53.406 98.1002C53.6149 97.5778 54.108 97.3746 54.8971 97.4907C55.177 97.5424 55.44 97.662 55.6629 97.839C55.7651 97.9124 55.8455 98.0122 55.8956 98.1277C55.9457 98.2432 55.9635 98.3701 55.9472 98.4949L55.0711 104.021C55.0371 104.309 54.8964 104.574 54.6766 104.764C54.4063 104.902 54.103 104.962 53.8005 104.938H39.3423C37.77 104.938 36.012 104.985 34.0858 105.072C33.9775 105.075 33.8702 105.05 33.7745 104.999C33.6788 104.948 33.5981 104.873 33.5405 104.781Z" fill="#1D1D1B"/>
<path d="M64.7313 104.782C64.599 104.581 64.5302 104.344 64.5341 104.103C64.5341 103.662 64.6559 103.401 64.8009 103.314C65.063 103.204 65.3474 103.158 65.6306 103.18C66.2917 103.23 66.9517 103.069 67.5162 102.721C67.9054 102.442 68.1781 102.028 68.2821 101.56C68.4009 100.976 68.4669 100.381 68.4793 99.7842V78.887H65.4566C64.6369 78.8587 63.8278 79.0793 63.1358 79.5198C62.5586 79.9618 62.1296 80.5692 61.9058 81.2612C61.5605 82.3405 61.3196 83.4504 61.1864 84.5757C61.1566 84.7101 61.0922 84.8344 60.9996 84.9363C60.907 85.0381 60.7894 85.1139 60.6584 85.1562C60.3412 85.2993 59.9969 85.3725 59.6489 85.371C59.3892 85.3744 59.1359 85.2906 58.9295 85.133C58.8256 85.0625 58.741 84.9672 58.6832 84.8557C58.6255 84.7442 58.5964 84.62 58.5988 84.4945L58.7322 78.3182C58.7322 77.6158 59.1267 77.2617 59.8926 77.2617H81.313C82.0731 77.2617 82.4734 77.6158 82.4734 78.3182L82.6475 84.4945C82.649 84.6225 82.6171 84.7487 82.5551 84.8606C82.493 84.9726 82.4029 85.0665 82.2935 85.133C82.077 85.2882 81.8173 85.3715 81.5509 85.371C81.2102 85.3738 80.8733 85.3004 80.5646 85.1562C80.4368 85.1126 80.3228 85.0359 80.2341 84.934C80.1455 84.832 80.0853 84.7084 80.0598 84.5757C79.9031 83.4468 79.6547 82.3324 79.3172 81.2438C79.104 80.5466 78.6729 79.9362 78.0872 79.5024C77.3928 79.0674 76.5854 78.8473 75.7665 78.8696H72.7901V99.7668C72.8025 100.364 72.8685 100.958 72.9874 101.543C73.0872 102.013 73.3607 102.428 73.7532 102.704C74.3171 103.053 74.9775 103.214 75.6388 103.163H75.8999C76.1052 103.15 76.3089 103.205 76.4801 103.319C76.6479 103.538 76.7322 103.81 76.718 104.086C76.7244 104.327 76.6555 104.564 76.5207 104.765C76.4564 104.858 76.3693 104.933 76.2677 104.983C76.1661 105.032 76.0535 105.055 75.9405 105.049C74.0723 104.96 72.3492 104.916 70.7711 104.916C69.0305 104.916 67.1971 104.962 65.2941 105.049C65.1857 105.053 65.078 105.031 64.98 104.985C64.882 104.938 64.7967 104.869 64.7313 104.782Z" fill="#1D1D1B"/>
<path d="M85.3048 104.782C85.1577 104.586 85.0801 104.347 85.0843 104.102C85.1133 103.661 85.2062 103.4 85.3686 103.313C85.6394 103.205 85.9308 103.16 86.2215 103.179C86.8827 103.23 87.5429 103.07 88.1071 102.721C88.4996 102.444 88.7732 102.03 88.8729 101.56C88.9918 100.975 89.0578 100.38 89.0702 99.7837V82.4274C89.0578 81.8306 88.9918 81.2361 88.8729 80.6512C88.7732 80.1814 88.4996 79.7667 88.1071 79.4902C87.5429 79.1416 86.8827 78.981 86.2215 79.0316H85.9546C85.7323 79.0508 85.5099 78.9956 85.3222 78.8749C85.1888 78.7762 85.1075 78.515 85.0785 78.1087C85.0743 77.864 85.1519 77.625 85.299 77.4295C85.3645 77.3376 85.4518 77.2635 85.5531 77.2138C85.6544 77.1642 85.7665 77.1405 85.8792 77.1451C87.7745 77.2302 89.5266 77.2728 91.1357 77.2728H97.7092C100.257 77.2727 102.775 77.8107 105.101 78.8517C107.487 79.9082 108.679 82.0134 108.675 85.1673C108.691 86.8637 108.135 88.516 107.097 89.8575C106.019 91.2485 104.611 92.348 103 93.0559C99.9627 94.4056 96.5282 94.561 93.381 93.4913V99.8069C93.3963 100.403 93.4623 100.998 93.5783 101.583C93.6822 102.051 93.9549 102.464 94.3441 102.744C94.9086 103.092 95.5686 103.253 96.2297 103.203H96.4908C96.7149 103.184 96.939 103.239 97.129 103.359C97.2624 103.464 97.3379 103.719 97.3669 104.126C97.3733 104.367 97.3044 104.604 97.1696 104.805C97.1057 104.898 97.0186 104.974 96.917 105.023C96.8153 105.073 96.7024 105.096 96.5894 105.089C94.7154 105.002 92.8936 104.956 91.1125 104.956C89.5344 104.956 87.7938 105 85.8908 105.089C85.775 105.092 85.6604 105.066 85.5578 105.012C85.4552 104.958 85.3681 104.879 85.3048 104.782ZM99.7398 91.5873C100.899 91.1529 101.907 90.3905 102.641 89.3931C103.471 88.1935 103.879 86.7519 103.801 85.295C103.801 82.7215 102.983 81.013 101.347 80.1694C99.7354 79.3276 97.9432 78.8913 96.1253 78.8981C95.5469 78.8711 94.9685 78.9518 94.4195 79.1361C94.2226 79.2238 94.0475 79.3542 93.9071 79.5179C93.7666 79.6815 93.6642 79.8743 93.6073 80.0823C93.4139 80.7949 93.3317 81.533 93.3636 82.2707V91.715C94.3556 92.09 95.4143 92.256 96.4734 92.2026C97.5904 92.1967 98.6971 91.9882 99.7398 91.5873Z" fill="#1D1D1B"/>
<path d="M118.404 103.818C116.325 102.528 114.63 100.704 113.496 98.5356C112.343 96.3624 111.745 93.9375 111.755 91.477C111.688 88.6609 112.409 85.882 113.838 83.4548C115.126 81.2794 116.96 79.4785 119.158 78.2305C121.154 77.062 123.42 76.4338 125.732 76.4078C128.346 76.3574 130.921 77.0498 133.158 78.4047C135.252 79.6787 136.962 81.496 138.107 83.6638C139.262 85.828 139.86 88.2459 139.848 90.6992C139.915 93.5248 139.187 96.3125 137.748 98.7446C136.445 100.942 134.586 102.756 132.358 104.004C130.232 105.219 127.82 105.843 125.372 105.812C122.924 105.782 120.528 105.097 118.433 103.83L118.404 103.818ZM130.669 102.106C132.072 100.808 133.102 99.1587 133.652 97.3282C134.33 95.181 134.663 92.9394 134.638 90.6876C134.661 88.5783 134.32 86.4809 133.628 84.4881C133.048 82.7367 132.003 81.1759 130.606 79.972C129.228 78.8333 127.484 78.2331 125.697 78.2828C124.363 78.2281 123.041 78.5455 121.877 79.1995C120.713 79.8535 119.754 80.8183 119.106 81.9862C117.629 84.4591 116.89 87.5781 116.89 91.3435C116.867 93.4737 117.2 95.5927 117.876 97.6127C118.44 99.3694 119.462 100.944 120.835 102.175C122.234 103.292 123.975 103.895 125.765 103.882C127.555 103.869 129.286 103.242 130.669 102.106Z" fill="#1D1D1B"/>
<path d="M143.422 104.782C143.287 104.582 143.218 104.344 143.225 104.103C143.225 103.662 143.341 103.401 143.486 103.313C143.75 103.203 144.036 103.157 144.321 103.18C144.981 103.231 145.639 103.07 146.201 102.721C146.594 102.445 146.867 102.03 146.967 101.56C147.086 100.975 147.152 100.381 147.164 99.7841V82.4279C147.152 81.8311 147.086 81.2366 146.967 80.6516C146.867 80.1818 146.594 79.7671 146.201 79.4907C145.639 79.1421 144.981 78.9815 144.321 79.0321H144.054C143.838 79.0523 143.62 78.9969 143.439 78.8753C143.284 78.6512 143.209 78.3814 143.225 78.1091C143.218 77.8677 143.287 77.6303 143.422 77.43C143.486 77.3369 143.573 77.2618 143.675 77.212C143.777 77.1622 143.889 77.1393 144.002 77.1455C145.901 77.2307 147.625 77.2732 149.172 77.2732H155.345C156.655 77.2465 157.965 77.3653 159.25 77.6273C160.194 77.8404 161.097 78.2113 161.918 78.7244C162.689 79.2308 163.31 79.9343 163.717 80.7619C164.157 81.6387 164.382 82.6078 164.373 83.5888C164.41 84.3947 164.27 85.1989 163.963 85.945C163.657 86.6911 163.19 87.361 162.597 87.9076C161.423 88.9676 160 89.7125 158.46 90.0728V90.2063C159.89 90.1884 161.304 90.496 162.597 91.106C163.76 91.6382 164.761 92.4694 165.498 93.515C166.166 94.4737 166.525 95.6143 166.525 96.7831C166.563 97.6681 166.422 98.5516 166.11 99.3805C165.797 100.21 165.321 100.967 164.709 101.607C163.445 102.862 161.872 103.761 160.149 104.213C158.303 104.727 156.396 104.985 154.48 104.979L149.218 104.933C147.64 104.933 145.899 104.977 143.996 105.066C143.884 105.072 143.773 105.048 143.673 104.999C143.572 104.949 143.486 104.874 143.422 104.782ZM153.343 89.3297C154.365 89.3429 155.385 89.2554 156.389 89.0685C157.299 88.8745 158.116 88.3797 158.71 87.6638C159.383 86.8898 159.719 85.7056 159.719 84.1112C159.719 80.6284 158.012 78.887 154.596 78.887H151.516V89.3355L153.343 89.3297ZM159.853 101.624C161.153 100.591 161.802 98.8844 161.802 96.5219C161.733 95.7501 161.499 95.0022 161.117 94.3284C160.735 93.6545 160.213 93.0704 159.586 92.6152C158.255 91.5936 156.161 91.0828 153.303 91.0828H151.516V99.7899C151.48 100.538 151.576 101.287 151.8 102.002C151.874 102.22 151.996 102.419 152.155 102.585C152.314 102.752 152.508 102.881 152.722 102.965C153.354 103.157 154.013 103.239 154.672 103.209C156.528 103.277 158.352 102.718 159.853 101.624Z" fill="#1D1D1B"/>
<path d="M177.461 104.039C175.386 102.839 173.686 101.084 172.553 98.9715C171.3 96.6136 170.675 93.9729 170.737 91.3034C170.677 88.6003 171.275 85.9231 172.477 83.5018C173.596 81.309 175.333 79.4926 177.473 78.2775C179.789 76.9958 182.404 76.3528 185.05 76.4142C187.375 76.3713 189.676 76.8911 191.757 77.9292C192.65 78.3267 193.405 78.9799 193.928 79.8063C194.45 80.6328 194.716 81.5955 194.693 82.573C194.758 83.8001 194.342 85.0042 193.532 85.9282C193.119 86.3862 192.61 86.7475 192.042 86.9863C191.473 87.2251 190.859 87.3355 190.243 87.3097C189.782 87.3224 189.324 87.2249 188.908 87.0253C188.586 86.8689 188.307 86.6356 188.096 86.3461C187.952 86.174 187.876 85.9552 187.881 85.7308C187.881 85.6728 188.084 85.5102 188.461 85.249C188.903 84.9697 189.282 84.6021 189.575 84.1693C189.91 83.6647 190.078 83.0679 190.057 82.4627C190.083 81.8737 189.977 81.2862 189.746 80.7437C189.515 80.2013 189.165 79.7175 188.723 79.3282C187.673 78.4999 186.355 78.0867 185.021 78.1672C183.313 78.1441 181.644 78.6757 180.263 79.6823C178.783 80.8179 177.659 82.3552 177.026 84.1113C176.2 86.3383 175.806 88.7024 175.866 91.077C175.834 93.2695 176.261 95.4443 177.119 97.4623C177.866 99.271 179.084 100.846 180.646 102.025C182.153 103.148 183.989 103.739 185.868 103.708C187.285 103.751 188.688 103.412 189.929 102.727C191.188 101.931 192.234 100.839 192.975 99.5462C193.028 99.429 193.114 99.3296 193.222 99.2596C193.33 99.1897 193.456 99.1521 193.584 99.1514C193.866 99.1656 194.139 99.2558 194.374 99.4127C194.843 99.7377 195.076 100.057 195.076 100.382C195.078 100.463 195.064 100.543 195.034 100.618C195.004 100.693 194.959 100.761 194.901 100.817C194.002 102.011 192.948 103.081 191.768 103.998C190.819 104.698 189.737 105.198 188.589 105.467C187.176 105.754 185.737 105.884 184.296 105.856C181.896 105.873 179.536 105.245 177.461 104.039Z" fill="#1D1D1B"/>
<path d="M219.762 104.341C218.747 103.691 217.887 102.825 217.244 101.804C216.479 100.527 215.799 99.2005 215.208 97.8339C214.652 96.5962 214.03 95.389 213.345 94.2175C212.807 93.3283 212.082 92.566 211.222 91.9827C210.272 91.362 209.154 91.048 208.019 91.0829H206.859V99.7901C206.871 100.387 206.937 100.981 207.056 101.566C207.16 102.034 207.433 102.448 207.822 102.727C208.387 103.075 209.047 103.236 209.708 103.186H209.969C210.193 103.168 210.417 103.223 210.607 103.343C210.775 103.562 210.859 103.833 210.845 104.109C210.851 104.35 210.782 104.588 210.648 104.788C210.583 104.881 210.496 104.956 210.395 105.006C210.293 105.056 210.18 105.079 210.067 105.072C208.199 104.983 206.389 104.939 204.637 104.939C203.032 104.939 201.28 104.983 199.38 105.072C199.267 105.079 199.155 105.056 199.053 105.006C198.952 104.956 198.865 104.881 198.8 104.788C198.665 104.588 198.597 104.35 198.603 104.109C198.603 103.668 198.725 103.406 198.887 103.319C199.144 103.213 199.422 103.167 199.699 103.186C200.359 103.236 201.017 103.075 201.579 102.727C201.963 102.458 202.242 102.064 202.368 101.613C202.505 101.022 202.579 100.419 202.589 99.8133V82.428C202.579 81.8221 202.505 81.219 202.368 80.6286C202.242 80.1769 201.963 79.783 201.579 79.5141C201.017 79.1662 200.359 79.0057 199.699 79.0555H199.433C199.227 79.0677 199.024 79.0127 198.852 78.8987C198.682 78.6812 198.597 78.4085 198.615 78.1325C198.608 77.8911 198.677 77.6537 198.812 77.4534C198.876 77.3603 198.963 77.2852 199.065 77.2355C199.166 77.1857 199.279 77.1627 199.392 77.1689C201.26 77.2541 203.001 77.2966 204.614 77.2966C206.366 77.2966 208.191 77.2541 210.091 77.1689C210.204 77.1627 210.316 77.1857 210.418 77.2355C210.519 77.2852 210.606 77.3603 210.671 77.4534C210.806 77.6537 210.875 77.8911 210.868 78.1325C210.839 78.5679 210.746 78.8349 210.584 78.922C210.313 79.0295 210.022 79.0751 209.731 79.0555C209.07 79.0056 208.41 79.1661 207.845 79.5141C207.456 79.7937 207.183 80.207 207.079 80.675C206.961 81.26 206.895 81.8545 206.882 82.4513V89.3763H208.953C209.933 89.3628 210.886 89.0577 211.692 88.4998C212.685 87.8077 213.484 86.8723 214.013 85.7832C214.222 85.3711 214.552 84.6222 215.022 83.4613C215.61 82.0565 216.144 80.8956 216.624 79.9784C217.102 79.0636 217.739 78.2402 218.503 77.5462C219.265 76.8415 220.252 76.4301 221.288 76.3853C221.871 76.3585 222.452 76.4536 222.995 76.6645C223.539 76.8754 224.032 77.1975 224.444 77.6101C224.808 77.9633 225.098 78.3854 225.297 78.8518C225.496 79.3182 225.601 79.8196 225.605 80.3267C225.614 80.9347 225.44 81.5315 225.106 82.0391C224.81 82.5077 224.414 82.9044 223.945 83.2001C223.621 83.4257 223.243 83.5618 222.849 83.5948C222.611 83.5948 222.495 83.5251 222.495 83.38C222.504 82.657 222.303 81.947 221.915 81.3367C221.782 81.0769 221.583 80.8572 221.337 80.7001C221.091 80.543 220.808 80.4542 220.517 80.4428C220.064 80.4293 219.615 80.5282 219.21 80.7309C218.805 80.9335 218.457 81.2334 218.196 81.6038C217.499 82.627 216.932 83.7325 216.507 84.8951C216.27 85.4755 216.096 85.8877 215.979 86.1199C215.546 87.0855 214.938 87.9631 214.187 88.7088C213.591 89.3228 212.829 89.7486 211.994 89.9336V90.0671C213.406 90.0241 214.792 90.4485 215.939 91.2745C216.999 92.0572 217.893 93.0439 218.567 94.1769C219.361 95.5465 220.077 96.9593 220.714 98.4086C221.277 99.7439 221.958 101.026 222.75 102.24C222.973 102.604 223.285 102.906 223.656 103.118C224.028 103.329 224.447 103.442 224.874 103.447C225.214 103.463 225.548 103.353 225.814 103.139C226.095 102.9 226.34 102.62 226.539 102.309C226.8 101.868 227.038 101.653 227.241 101.653H227.281C227.396 101.648 227.51 101.673 227.612 101.726C227.714 101.779 227.8 101.858 227.862 101.955C227.927 102.058 227.971 102.174 227.99 102.295C228.009 102.416 228.003 102.539 227.972 102.658C227.897 103.104 227.718 103.526 227.447 103.888C227.177 104.251 226.823 104.543 226.417 104.742C225.574 105.19 224.633 105.423 223.679 105.421C222.295 105.458 220.931 105.082 219.762 104.341Z" fill="#1D1D1B"/>
<path d="M228.286 104.781C228.151 104.581 228.082 104.344 228.088 104.102C228.088 103.661 228.204 103.4 228.349 103.313C228.51 103.222 228.693 103.176 228.877 103.179H229.26C229.611 103.21 229.965 103.165 230.297 103.048C230.629 102.931 230.932 102.744 231.187 102.5C231.597 102.047 231.93 101.529 232.173 100.968L232.678 99.8068L240.342 81.661C240.495 81.3284 240.586 80.9702 240.609 80.6046C240.628 80.3725 240.58 80.1398 240.471 79.9341C240.362 79.7284 240.196 79.5582 239.994 79.4436C239.457 79.163 238.879 78.9672 238.282 78.8631C237.964 78.8308 237.653 78.7424 237.366 78.6019C237.25 78.509 237.192 78.2652 237.192 77.8531C237.174 77.7214 237.191 77.5874 237.241 77.4643C237.291 77.3412 237.372 77.2331 237.476 77.1507C237.755 77.0134 238.065 76.9533 238.375 76.9766C239.545 76.9473 240.713 77.0583 241.856 77.3075C242.716 77.5268 243.497 77.9811 244.113 78.6193C244.891 79.5025 245.499 80.5219 245.906 81.6262L253.268 99.7719C253.587 100.653 254.014 101.492 254.539 102.268C254.754 102.55 255.033 102.776 255.353 102.928C255.673 103.081 256.024 103.155 256.378 103.144H256.645C256.851 103.13 257.055 103.185 257.225 103.301C257.382 103.525 257.46 103.795 257.446 104.067C257.452 104.309 257.383 104.546 257.249 104.747C257.183 104.839 257.096 104.913 256.995 104.963C256.893 105.013 256.781 105.036 256.668 105.031C254.8 104.942 253.193 104.898 251.847 104.898C250.095 104.898 248.285 104.942 246.416 105.031C246.304 105.036 246.191 105.013 246.09 104.963C245.989 104.913 245.901 104.839 245.836 104.747C245.702 104.546 245.633 104.309 245.639 104.067C245.625 103.795 245.703 103.525 245.86 103.301C246.04 103.178 246.257 103.122 246.475 103.144C247.186 103.189 247.9 103.092 248.575 102.86C248.772 102.775 248.938 102.63 249.049 102.446C249.159 102.261 249.208 102.047 249.19 101.833C249.113 101.124 248.935 100.43 248.662 99.7719L247.171 96.1323H236.368C235.637 97.9434 235.207 98.9999 235.12 99.2901C235.057 99.4471 235.005 99.608 234.964 99.7719C234.71 100.466 234.535 101.186 234.441 101.92C234.424 102.134 234.48 102.348 234.598 102.527C234.717 102.706 234.893 102.839 235.097 102.906C235.914 103.11 236.757 103.19 237.598 103.144H237.859C238.076 103.124 238.293 103.18 238.474 103.301C238.628 103.526 238.704 103.795 238.688 104.067C238.695 104.309 238.626 104.546 238.491 104.747C238.427 104.84 238.34 104.915 238.238 104.965C238.137 105.014 238.024 105.037 237.911 105.031C236.043 104.942 234.451 104.898 233.136 104.898C232.2 104.898 230.784 104.942 228.889 105.031C228.776 105.044 228.661 105.028 228.555 104.984C228.45 104.941 228.357 104.871 228.286 104.781ZM237.203 94.2806H246.399L241.978 83.0077H241.845L237.203 94.2806Z" fill="#1D1D1B"/>
<path d="M259.767 104.695C259.363 104.49 259.011 104.196 258.737 103.835C258.464 103.474 258.276 103.055 258.189 102.611V102.437C258.185 102.23 258.246 102.027 258.363 101.856C258.414 101.773 258.486 101.705 258.571 101.657C258.657 101.609 258.752 101.584 258.85 101.583C258.924 101.584 258.997 101.6 259.065 101.63C259.133 101.66 259.194 101.703 259.244 101.757C259.401 101.922 259.546 102.096 259.68 102.28C259.893 102.575 260.136 102.847 260.405 103.093C260.673 103.299 261.007 103.4 261.345 103.377C261.771 103.373 262.191 103.27 262.572 103.077C262.952 102.884 263.283 102.605 263.538 102.262C264.373 101.171 265.107 100.005 265.731 98.7796L266.891 96.7189C267.528 95.6374 268.293 94.6374 269.171 93.741C269.978 92.9298 270.949 92.3021 272.02 91.9009V91.7674C269.667 91.734 267.39 90.933 265.534 89.4861C264.83 88.9 264.267 88.1622 263.888 87.3278C263.51 86.4935 263.324 85.5843 263.346 84.6682C263.346 81.9167 264.383 79.9818 266.456 78.8634C268.56 77.746 270.909 77.1733 273.291 77.1974L274.213 77.2381H281.001C282.638 77.2381 284.39 77.1955 286.258 77.1104C286.371 77.1042 286.484 77.1271 286.585 77.1769C286.687 77.2267 286.774 77.3017 286.838 77.3948C286.973 77.5951 287.042 77.8326 287.035 78.074C287.006 78.5093 286.914 78.7763 286.751 78.8634C286.48 78.9709 286.189 79.0165 285.898 78.9969C285.237 78.9471 284.577 79.1076 284.013 79.4555C283.623 79.7352 283.351 80.1484 283.247 80.6164C283.128 81.2014 283.062 81.7959 283.049 82.3927V99.807C283.062 100.404 283.128 100.998 283.247 101.583C283.351 102.051 283.623 102.465 284.013 102.744C284.577 103.092 285.237 103.253 285.898 103.203H286.159C286.383 103.185 286.607 103.24 286.798 103.36C286.965 103.579 287.05 103.85 287.035 104.126C287.042 104.367 286.973 104.605 286.838 104.805C286.774 104.898 286.687 104.973 286.585 105.023C286.484 105.073 286.371 105.096 286.258 105.089C284.39 105.002 282.649 104.956 281.036 104.956C279.284 104.956 277.458 105 275.559 105.089C275.446 105.096 275.334 105.073 275.232 105.023C275.131 104.973 275.043 104.898 274.979 104.805C274.844 104.605 274.775 104.367 274.782 104.126C274.782 103.685 274.904 103.423 275.066 103.336C275.323 103.23 275.601 103.185 275.878 103.203C276.538 103.253 277.196 103.093 277.758 102.744C278.162 102.469 278.453 102.056 278.576 101.583C278.713 100.993 278.787 100.39 278.797 99.7838V92.4408H277.747C276.752 92.4085 275.769 92.6689 274.921 93.1896C274.154 93.676 273.496 94.3164 272.989 95.0703C272.365 96.0278 271.803 97.0244 271.307 98.054C270.487 99.6909 269.777 100.983 269.177 101.932C268.532 102.93 267.662 103.763 266.636 104.364C265.378 105.08 263.945 105.429 262.499 105.374C261.546 105.381 260.606 105.147 259.767 104.695ZM278.779 90.8212V82.4275C278.816 81.658 278.727 80.8877 278.518 80.1463C278.448 79.9333 278.327 79.7403 278.167 79.5838C278.006 79.4272 277.81 79.3115 277.596 79.2465C276.936 79.095 276.259 79.0306 275.583 79.055C273.262 79.055 271.457 79.5735 270.169 80.6106C269.531 81.1461 269.027 81.8233 268.697 82.5882C268.366 83.353 268.219 84.1846 268.266 85.0165C268.266 87.497 269.106 89.0895 270.784 89.7938C272.617 90.5214 274.575 90.8785 276.546 90.8444L278.779 90.8212Z" fill="#1D1D1B"/>
<path d="M178.883 35.6878L194.235 13.1943L184.865 35.6878H178.883Z" fill="#DE8436"/>
<path d="M189.784 35.6876L196.334 17.8438L194.327 35.6876H189.784Z" fill="#F8B378"/>
<path d="M198.342 35.6881L199.508 21.2168L202.879 35.6881H198.342Z" fill="#DE8436"/>
<path d="M207.306 35.6881L204.887 24.4385L211.849 35.6881H207.306Z" fill="#F8B378"/>
<path d="M216.276 35.6876L210.41 26.458L220.813 35.6876H216.276Z" fill="#DE8436"/>
<path d="M225.692 35.6872L218.794 29.4297L230.235 35.6872H225.692Z" fill="#F8B378"/>
<path d="M234.389 35.6882L228.001 31.5029L238.926 35.6882H234.389Z" fill="#DE8436"/>
<path d="M243.092 35.6876L237.18 33L247.635 35.6876H243.092Z" fill="#F8B378"/>
<path d="M108.588 35.6878L93.2361 13.1943L102.606 35.6878H108.588Z" fill="#DE8436"/>
<path d="M97.6863 35.6876L91.1418 17.8438L93.1493 35.6876H97.6863Z" fill="#F8B378"/>
<path d="M89.1347 35.6881L87.9685 21.2168L84.5918 35.6881H89.1347Z" fill="#DE8436"/>
<path d="M80.165 35.6881L82.5844 24.4385L75.6279 35.6881H80.165Z" fill="#F8B378"/>
<path d="M71.2008 35.6876L77.0665 26.458L66.658 35.6876H71.2008Z" fill="#DE8436"/>
<path d="M61.7783 35.6872L68.6825 29.4297L57.2412 35.6872H61.7783Z" fill="#F8B378"/>
<path d="M53.0878 35.6882L59.4698 31.5029L48.5449 35.6882H53.0878Z" fill="#DE8436"/>
<path d="M44.3788 35.6876L50.2967 33L39.8418 35.6876H44.3788Z" fill="#F8B378"/>
<defs>
<linearGradient id="paint0_linear_504_88" x1="151.109" y1="142.995" x2="197.01" y2="172.921" gradientUnits="userSpaceOnUse">
<stop stop-color="#F18632"/>
<stop offset="0.24" stop-color="#FEDBA4"/>
<stop offset="0.37" stop-color="#FBCC93"/>
<stop offset="0.62" stop-color="#F5B477"/>
<stop offset="0.84" stop-color="#F2A566"/>
<stop offset="1" stop-color="#F1A060"/>
</linearGradient>
<linearGradient id="paint1_linear_504_88" x1="243.469" y1="133.394" x2="254.978" y2="165.003" gradientUnits="userSpaceOnUse">
<stop stop-color="#F18632"/>
<stop offset="0.24" stop-color="#FEDBA4"/>
<stop offset="0.37" stop-color="#FBCC93"/>
<stop offset="0.62" stop-color="#F5B477"/>
<stop offset="0.84" stop-color="#F2A566"/>
<stop offset="1" stop-color="#F1A060"/>
</linearGradient>
<linearGradient id="paint2_linear_504_88" x1="170.394" y1="159.899" x2="188.409" y2="171.645" gradientUnits="userSpaceOnUse">
<stop stop-color="#D18D55"/>
<stop offset="0.47" stop-color="#FBDEBD"/>
<stop offset="1" stop-color="#F7B78A"/>
</linearGradient>
<linearGradient id="paint3_linear_504_88" x1="166.908" y1="168.93" x2="175.045" y2="175.752" gradientUnits="userSpaceOnUse">
<stop offset="0.18" stop-color="#F0A060"/>
<stop offset="0.43" stop-color="#FCD197"/>
<stop offset="0.67" stop-color="#F0A060"/>
</linearGradient>
<linearGradient id="paint4_linear_504_88" x1="172.975" y1="175.452" x2="169.722" y2="173.082" gradientUnits="userSpaceOnUse">
<stop stop-color="#D18D55"/>
<stop offset="0.47" stop-color="#FBDEBD"/>
<stop offset="1" stop-color="#F7B78A"/>
</linearGradient>
<linearGradient id="paint5_linear_504_88" x1="268.545" y1="146.262" x2="270.676" y2="134.205" gradientUnits="userSpaceOnUse">
<stop stop-color="#F18632"/>
<stop offset="0.24" stop-color="#FEDBA4"/>
<stop offset="0.37" stop-color="#FBCC93"/>
<stop offset="0.62" stop-color="#F5B477"/>
<stop offset="0.84" stop-color="#F2A566"/>
<stop offset="1" stop-color="#F1A060"/>
</linearGradient>
<linearGradient id="paint6_linear_504_88" x1="199.543" y1="161.628" x2="215.937" y2="110.882" gradientUnits="userSpaceOnUse">
<stop offset="0.04" stop-color="#FEF1CB"/>
<stop offset="0.39" stop-color="#F8B278"/>
<stop offset="0.75" stop-color="#FBDEBD"/>
<stop offset="1" stop-color="#F7B78A"/>
</linearGradient>
<linearGradient id="paint7_linear_504_88" x1="270.883" y1="148.974" x2="262.811" y2="126.814" gradientUnits="userSpaceOnUse">
<stop stop-color="#D18D55"/>
<stop offset="0.47" stop-color="#FBDEBD"/>
<stop offset="1" stop-color="#F7B78A"/>
</linearGradient>
<linearGradient id="paint8_linear_504_88" x1="137.872" y1="142.994" x2="91.9715" y2="172.92" gradientUnits="userSpaceOnUse">
<stop stop-color="#F18632"/>
<stop offset="0.24" stop-color="#FEDBA4"/>
<stop offset="0.37" stop-color="#FBCC93"/>
<stop offset="0.62" stop-color="#F5B477"/>
<stop offset="0.84" stop-color="#F2A566"/>
<stop offset="1" stop-color="#F1A060"/>
</linearGradient>
<linearGradient id="paint9_linear_504_88" x1="45.5132" y1="133.393" x2="34.0037" y2="165.002" gradientUnits="userSpaceOnUse">
<stop stop-color="#F18632"/>
<stop offset="0.24" stop-color="#FEDBA4"/>
<stop offset="0.37" stop-color="#FBCC93"/>
<stop offset="0.62" stop-color="#F5B477"/>
<stop offset="0.84" stop-color="#F2A566"/>
<stop offset="1" stop-color="#F1A060"/>
</linearGradient>
<linearGradient id="paint10_linear_504_88" x1="118.588" y1="159.899" x2="100.568" y2="171.645" gradientUnits="userSpaceOnUse">
<stop stop-color="#D18D55"/>
<stop offset="0.47" stop-color="#FBDEBD"/>
<stop offset="1" stop-color="#F7B78A"/>
</linearGradient>
<linearGradient id="paint11_linear_504_88" x1="122.074" y1="168.93" x2="113.937" y2="175.752" gradientUnits="userSpaceOnUse">
<stop offset="0.18" stop-color="#F0A060"/>
<stop offset="0.43" stop-color="#FCD197"/>
<stop offset="0.67" stop-color="#F0A060"/>
</linearGradient>
<linearGradient id="paint12_linear_504_88" x1="116.501" y1="173.806" x2="119.757" y2="171.431" gradientUnits="userSpaceOnUse">
<stop stop-color="#D18D55"/>
<stop offset="0.47" stop-color="#FBDEBD"/>
<stop offset="1" stop-color="#F7B78A"/>
</linearGradient>
<linearGradient id="paint13_linear_504_88" x1="25.4554" y1="141.753" x2="23.2723" y2="129.665" gradientUnits="userSpaceOnUse">
<stop stop-color="#F18632"/>
<stop offset="0.24" stop-color="#FEDBA4"/>
<stop offset="0.37" stop-color="#FBCC93"/>
<stop offset="0.62" stop-color="#F5B477"/>
<stop offset="0.84" stop-color="#F2A566"/>
<stop offset="1" stop-color="#F1A060"/>
</linearGradient>
<linearGradient id="paint14_linear_504_88" x1="89.4384" y1="161.628" x2="73.0449" y2="110.882" gradientUnits="userSpaceOnUse">
<stop offset="0.04" stop-color="#FEF1CB"/>
<stop offset="0.39" stop-color="#F8B278"/>
<stop offset="0.75" stop-color="#FBDEBD"/>
<stop offset="1" stop-color="#F7B78A"/>
</linearGradient>
<linearGradient id="paint15_linear_504_88" x1="18.0991" y1="148.973" x2="26.1651" y2="126.813" gradientUnits="userSpaceOnUse">
<stop stop-color="#D18D55"/>
<stop offset="0.47" stop-color="#FBDEBD"/>
<stop offset="1" stop-color="#F7B78A"/>
</linearGradient>
</defs>
</svg>
