<svg width="54" height="18" viewBox="0 0 54 18" fill="none" xmlns="http://www.w3.org/2000/svg">
<path d="M38.8388 1.59517C37.6158 1.15307 36.3245 0.930156 35.0241 0.936662C30.8251 0.936662 27.8577 3.05833 27.8396 6.09468C27.8051 8.32637 29.9432 9.58426 31.5591 10.3364C33.2193 11.1065 33.7744 11.5861 33.7662 12.2692C33.7579 13.3218 32.4393 13.7915 31.2257 13.7915C29.5392 13.7915 28.6246 13.5616 27.214 12.9704L26.6901 12.7224L26.0924 16.2301C27.1187 16.6488 28.9579 17.0167 30.8563 17.0511C35.3295 17.0511 38.246 14.9475 38.2788 11.7043C38.3133 9.92583 37.1687 8.57598 34.7301 7.46259C33.2587 6.74497 32.3375 6.25561 32.3375 5.51992C32.3375 4.86963 33.1241 4.18649 34.7662 4.18649C35.856 4.15919 36.9395 4.36 37.9471 4.77603L38.3494 4.95502L38.939 1.5771L38.8388 1.59517ZM49.7542 1.22732H46.4699C45.4435 1.22732 44.6816 1.50156 44.2283 2.5197L37.9159 16.8278H42.3809L43.2808 14.4845L48.7279 14.4927C48.8642 15.0395 49.2484 16.8262 49.2484 16.8262H53.1912L49.7542 1.22732ZM21.7932 1.09924H26.0447L23.3844 16.7063H19.1329L21.7932 1.09102V1.09924ZM10.9829 9.69428L11.418 11.8669L15.5826 1.22732H20.0903L13.3837 16.8015H8.89569L5.21726 3.61338C5.18908 3.50383 5.13887 3.40117 5.0697 3.31167C5.00052 3.22217 4.91384 3.1477 4.81493 3.09281C3.49363 2.40558 2.09195 1.88541 0.642212 1.54426L0.693119 1.21747H7.55241C8.47694 1.25196 9.22905 1.54426 9.48523 2.53612L10.9829 9.70249V9.69428ZM44.4927 11.2937L46.1956 6.92397C46.1694 6.96502 46.5454 6.02571 46.7589 5.43453L47.0496 6.77617L48.0349 11.2839H44.4927V11.2937Z" fill="#303030"/>
</svg>
